<svg xmlns="http://www.w3.org/2000/svg" viewBox="0 0 64 64"><path fill="#758797" d="M20.5,18.91l-1.58,13.75,5.03,12.69c.23,.19,.46,.4,.66,.62l6.71,7.36c.36,.4,.99,.4,1.36,0l6.71-7.36c.21-.22,.43-.43,.66-.63l5.02-12.59-1.58-13.85H20.5Z"/><path fill="#8598ab" d="M23.95,45.36l-3.45-26.44-7.44,6.9-2.57,11.25c.19,.29,.45,.54,.75,.72l11.82,6.94c.31,.19,.61,.4,.89,.63h0Z"/><path fill="#9dacb9" d="M10.49,37.06l10.01-18.15L5.75,14.88c-.44-.12-.84,.28-.73,.71l5.11,20.7c.07,.27,.2,.53,.36,.76h0Z"/><path fill="#8598ab" d="M43.5,18.91l-3.44,26.44c.28-.23,.57-.44,.88-.63l11.82-6.94c.3-.18,.56-.43,.75-.73l-2.2-10.88-7.81-7.27Z"/><path fill="#9dacb9" d="M43.5,18.91l10.01,18.14c.16-.23,.29-.49,.36-.76l5.11-20.7c.11-.44-.29-.83-.73-.71l-14.75,4.03Z"/><path fill="#8598ab" d="M32,27.47l4.21-6.63,.18-5.34h-8.78l.27,5.2,4.12,6.78Z"/><path fill="#9dacb9" d="M20.5 18.91l11.5 8.56h0l-4.39-11.97-1.87-4.84c-.14-.37-.65-.4-.83-.05l-4.36 8.21h0l-.05.1zM32 27.47l11.5-8.55h0l-.03-.05h0l-4.38-8.26c-.19-.35-.69-.32-.83.05l-1.87 4.84-4.39 11.97z"/></svg>