<svg xmlns="http://www.w3.org/2000/svg" viewBox="0 0 64 64"><path fill="#fce87b" d="M37.44,32.25h-10.88l-2.53,12.15h15.94l-2.53-12.15Z"/><path fill="#9dacb9" d="M32,5c-.37,0-.74,.04-1.1,.12l-4.21,.92c-.68,.15-1.23,.66-1.43,1.32l-.82,2.73,7.38,2.51,7.74-2.51-.82-2.73c-.2-.67-.75-1.18-1.43-1.32l-4.21-.92c-.36-.08-.73-.12-1.1-.12Z"/><path fill="#fce87b" d="M38.37,51.96l1.15-3.53-8.27-2.87-6.76,2.87,1.14,3.53,5.4,3.29c.59,.36,1.34,.36,1.93,0l5.4-3.29Z"/><path fill="#9dacb9" d="M39.97,42.23h-15.94l-1.89,5.85h19.73l-1.89-5.85Z"/><path fill="#fce87b" d="M32.01,17.64l-2.76,9.42h0l-.78,2.67h7.09l-.78-2.67h0l-2.76-9.42Z"/><path fill="#9dacb9" d="M35.55,28.57h-7.09l-1.9,5.85h10.88l-1.89-5.85Z"/><path fill="#e2eef2" d="M30.43,26.15l-14.53,4.4-8.21,13.59h0c.07,.33,.22,.63,.45,.84l15.18,13.85c.37,.33,.95,.14,1.05-.35,2.08-10.77,4.05-21.55,6.05-32.33h0Z"/><path fill="#d7e5eb" d="M30.42,26.16c-.57,3.08-1.14,6.16-1.71,9.24L7.69,44.15,26.91,27.43l3.5-1.27Z"/><path fill="#f0f4f6" d="M7.69,44.14L30.43,26.15l1.58-8.52-4.93-3.32-7.68,3.32c-3.85,8.53-7.74,17.04-11.62,25.56-.13,.28-.15,.63-.09,.95h0Z"/><path fill="#e2eef2" d="M56.31,44.14l-11.73-14.02-11-3.97c2,10.78,3.96,21.57,6.04,32.33,.09,.49,.68,.68,1.05,.35l15.18-13.85c.23-.21,.39-.52,.45-.85Z"/><path fill="#d7e5eb" d="M33.58,26.15c.57,3.08,1.14,6.16,1.71,9.24l21.02,8.75-19.23-16.72-3.5-1.27Z"/><path fill="#f0f4f6" d="M44.6,17.64l-8.02-2.36-4.57,2.36,1.58,8.51,22.73,17.99c.06-.32,.04-.66-.09-.94-3.91-8.5-7.77-17.03-11.62-25.56h0Z"/><path fill="#8598ab" d="M39.56,10.1h-15.62c-.62,0-1.34,.46-1.59,1.03-.97,2.17-1.96,4.34-2.95,6.51h25.2c-.98-2.17-1.96-4.34-2.94-6.51-.26-.57-.97-1.03-1.59-1.03h-.5Z"/></svg>