<svg xmlns="http://www.w3.org/2000/svg" viewBox="0 0 64 64"><path fill="#fdda5c" d="M36.95 50.35l4.92-8.99-2.98-8.76c-.06.57-.51 1.03-1.08 1.11l-20.26 2.93 2.88 9.89 6.53 2.64 10 1.17zM16.12 47.7l2.06-4.91-.64-6.14-8.85 1.28c-.31.05-.59.19-.82.4l.5 3.97 3.13 2.07 4.62 3.33zM21 53.4l-3.7-.21-2.11 4.46c.15.17.37.27.6.28h9.49c.34 0 .5-.42.24-.64l-4.52-3.88z"/><path fill="#fce87b" d="M26.95,49.18l-9.4-12.53-1.43,11.05-1.19,9.26c-.02,.26,.07,.51,.26,.69l5.81-4.24,5.95-4.22Z"/><path fill="#f8c228" d="M44.2,54.1l-2.73,.6,.28,4.06c.26,.16,.55,.24,.86,.24h9.94c.25,0,.34-.34,.11-.46l-8.46-4.45Z"/><path fill="#fdda5c" d="M50.37 42.16l-9.05 2-4.37 6.19 4.2 7.78c.14.26.35.47.6.62l2.45-4.66 5.86-11.16c.13-.25.23-.51.31-.78zM49.87 5.01l-2.2 5.51 2.37 3.77h7.42c.54 0 .98-.44.98-.98v-3.13c0-.6-.34-1.16-.87-1.43l-6.83-3.5c-.27-.14-.57-.21-.87-.23z"/><path fill="#fce87b" d="M49.85,5c-.31-.01-.62,.04-.9,.16l-6.5,2.75c-.56,.24-.95,.76-1.01,1.36l-4.49,41.07,13.41-8.19c.1-.35,.14-.71,.13-1.08l-.47-26.8-.16-9.28h-.01Z"/><path fill="#f8c228" d="M11.51 44.36l-3.62-6.04c-.21.18-.37.42-.46.68l-1.84 5.71c-.14.42.23.83.66.74l5.25-1.09zM49.85 5l2.87 9.28-2.69.05-.18-9.33zM38.89 32.63l-1.94 17.72-2.86-.34 4.8-17.38zM17.55 36.65l-3.74 9.38 2.31 1.67 1.43-11.05zM15.19 57.64l7.31-2.95-1.5-1.29-5.81 4.24z"/><path fill="#eaa020" d="M41.75 58.76l4.71-3.47-2.26-1.19-2.45 4.66zM7.88 38.32l1.35 6.51 2.27-.47-3.62-6.04z"/></svg>