<svg xmlns="http://www.w3.org/2000/svg" viewBox="0 0 64 64"><path fill="#758797" d="M25.43,19.29l2.94,25.49,2.76,1.8c.53,.35,1.22,.35,1.75,0l2.75-1.8,2.94-25.49h-13.13Z"/><path fill="#fce87b" d="M38.56,19.29l-6.56-3.05-6.56,3.05,.79,6.82,5.78-2.85,5.7,3.51,.86-7.48Z"/><path fill="#ca96e5" d="M49.08,31.67l-4.74-.28-2.86,5.98-4.55,4.52,.03,9.31c.22,.15,.51,.19,.78,.07l12.27-5.72c.56-.26,.9-.86,.82-1.48l-1.75-12.41Z"/><path fill="#a26fd1" d="M41.48,37.38l-4.52,12.25v1.59c.23,.15,.52,.19,.79,.07l2.81-1.31c.31-4.2,.62-8.4,.93-12.6h0Z"/><path fill="#d6b1ed" d="M49.49,12.82l-7.25,12.26-.77,12.3,7.6-5.7,9.17-6.63c.48-.46,.75-1.1,.75-1.77V13.69c0-.58-.47-1.04-1.04-1.04h-7.36c-.38,0-.74,.06-1.1,.17Z"/><path fill="#ca96e5" d="M50.59,12.65c-.38,0-.74,.06-1.1,.17l-5.44,9.19-2.58,15.36,13.7-24.73h-4.59Z"/><path fill="#e5c9f3" d="M32,23.26l3.63,21.52,1,5.91c.04,.23,.17,.41,.34,.52l4.52-13.84,8.01-24.56c-.29,.09-.57,.21-.84,.37l-16.66,10.07Z"/><path fill="#ca96e5" d="M22.52,37.38l-2.78-4.34-4.82-1.36-1.75,12.41c-.08,.62,.26,1.21,.82,1.48l12.27,5.72c.27,.13,.56,.08,.78-.07l-.88-11.93-3.64-1.91Z"/><path fill="#d6b1ed" d="M14.51,12.82c-.35-.11-.72-.17-1.1-.17H6.04c-.58,0-1.04,.47-1.04,1.04v9.58c0,.67,.27,1.31,.75,1.77l9.17,6.63,7.6,5.7-.02-11.07-7.99-13.49Z"/><path fill="#a26fd1" d="M22.52,37.38l4.52,12.25v1.59c-.23,.15-.52,.19-.79,.07l-2.81-1.31c-.31-4.2-.62-8.4-.93-12.6h0Z"/><path fill="#ca96e5" d="M13.41,12.65c.38,0,.74,.06,1.1,.17l5.44,9.19,2.58,15.36L8.82,12.65h4.59Z"/><path fill="#e5c9f3" d="M14.51,12.82l8.01,24.56,4.52,13.84c.17-.12,.3-.3,.34-.52l1-5.91,3.63-21.52L15.34,13.19c-.26-.16-.55-.28-.84-.37Z"/></svg>