<svg xmlns="http://www.w3.org/2000/svg" viewBox="0 0 64 64"><path fill="#3aedbc" d="M31.75,5.05c-.23,.01-.46,.06-.67,.13l-11.19,4.68c-.57,.24-.96,.77-1.01,1.39l-1.46,17.83c-.05,.64,.13,1.29,.51,1.81l4.27,5.8h3.49L31.75,5.05Z"/><path fill="#6df4c0" d="M32.25,5.05l6.06,31.64h3.49l4.27-5.8c.38-.52,.57-1.16,.51-1.81l-1.46-17.83c-.05-.61-.44-1.15-1.01-1.39l-11.19-4.68c-.22-.08-.44-.12-.67-.13Z"/><path fill="#9af6d3" d="M32,5l-2.71,20.63,2.71,11.05h6.31l4.12-8.63-.99-13.82-9.19-9.19c-.08-.02-.17-.04-.25-.05h0Z"/><path fill="#6df4c0" d="M32,5c-.09,.01-.17,.03-.25,.05l-9.19,9.19-.99,13.82,4.12,8.63h6.31V5Z"/><path fill="#9dacb9" d="M34.72,59l-5.11-8.82-9.28-2.19,2.11,10.02c.12,.57,.62,.98,1.21,.98h11.06Z"/><path fill="#758797" d="M32,36.69h-9.81l-2.78,2.93c-.43,.46-.61,1.1-.48,1.71l1.4,6.66,7.19,5.5,9.29-4.94,4.99-11.87h-9.81Z"/><path fill="#637380" d="M19.63,44.66l.7,3.33,14.38,11-15.08-14.34Z"/><path fill="#8598ab" d="M41.81,36.69l-14.28,16.81,7.19,5.5h6.26c.58,0,1.09-.41,1.21-.98l3.4-16.14c.13-.62-.05-1.26-.48-1.71l-3.29-3.48Z"/><path fill="#637380" d="M27.53,53.5l14.28-16.81-17.13,14.63,2.85,2.18Z"/><path fill="#758797" d="M28.15,52.76l-.63,.74,7.19,5.5-6.56-6.24Z"/></svg>