<svg xmlns="http://www.w3.org/2000/svg" viewBox="0 0 64 64"><path fill="#758797" d="M53.89,26.27l3.1-.37,1.96-2.49c-.09-.32-.28-.61-.54-.78l-5.69-3.78c-.31-.21-.72,.08-.62,.44l1.79,6.99Z"/><path fill="#8598ab" d="M48.48,29.34l.86,5.34,4.77,4.61,4.81-15.06c.08-.26,.08-.54,.01-.8l-5.06,2.87-5.4,3.06Z"/><path fill="#e2eef2" d="M22.29,48.5c.19,.2,.46,.32,.76,.32h26.87c.59,0,1.22-.45,1.42-1,.93-2.61,1.86-5.55,2.79-8.54l-5.63-9.94-1.84-3.25c-.32-.57-.93-.92-1.58-.92h-8.47l-14.3,23.34Z"/><path fill="#8598ab" d="M6.79,15.18c-.56,0-.98,.5-.89,1.05l1.47,8.93,8.45-2.81-1.01-7.17H6.79Zm22.35,0l-1.46,5.23,8.9,4.75,1.47-8.93c.09-.55-.33-1.05-.89-1.05h-8.02Z"/><path fill="#f0f4f6" d="M31.26,36.69l8.1-7.82-2.77-3.71-7.44-9.98H14.82l-7.44,9.98-2.13,2.86c-.36,.49-.31,1.17,.13,1.59l6.58,6.35c.26,.25,.57,.44,.9,.57l8.38-3.23,10.02,3.39Z"/><path fill="#8598ab" d="M22.29,48.5l8.97-11.8h0l-6.96-1.21-3.94,1.21,1.62,8.68v2.37c0,.29,.12,.55,.3,.74h0Z"/><path fill="#758797" d="M21.98,45.38v-8.68l-2.19-1.43-4.98,1.43,7.17,8.68Z"/><path fill="#9dacb9" d="M18.62,29.52l-5.77,7.01c.29,.11,.6,.17,.92,.17H31.25l-5.91-7.18h-6.71Z"/><path fill="#8598ab" d="M18.62,29.52l3.36,3.09,3.36-3.09h-6.71Z"/><path fill="#637380" d="M58.94,23.41l-5.74,.19,.69,2.67,5.06-2.86Z"/><path fill="#758797" d="M14.81 15.18l-7.44 9.98 3.43-9.98h4.01zM29.15 15.18l7.44 9.98-3.43-9.98h-4.01zM48.48 29.34l6.82 6.24-1.18 3.7-5.63-9.94z"/><path fill="#637380" d="M21.98,36.7l-3.58,4.34,3.58,4.34v-8.68Z"/></svg>