<svg xmlns="http://www.w3.org/2000/svg" viewBox="0 0 64 64"><path fill="#f8c228" d="M18.75,58.8c.34,.12,.7,.2,1.06,.2h25.74c.96,0,1.83-.53,2.28-1.38l6.56-12.45c.25-.47,.36-.98,.38-1.49l-7.14-5.18-28.88,20.29Z"/><path fill="#e7a21c" d="M47.63,38.51l-7.09,4.98,11.54,6.08,2.32-4.4c.25-.47,.36-.98,.38-1.49l-7.14-5.18Z"/><path fill="#f8c228" d="M29.8,5c-1.15,0-2.2,.66-2.7,1.7l-2.08,4.28,9.44,1.84,6.49-3.74-10.06-3.87c-.35-.13-.72-.2-1.1-.2h0Z"/><path fill="#fdda5c" d="M41.04,9.08l3.05,13.08,11.03-6.08,2.53-1.22c.49-.24,.43-.96-.09-1.11l-15.09-4.39c-.47-.14-.94-.22-1.42-.27h0Z"/><path fill="#f8c228" d="M55.11 16.07l-11.32 4.82 5.02 7.35 6.3-12.16zM6.07 43.39l8.51-4.91 3.69-6.73-7.16-3.94c-.69-.38-1.54 0-1.73.76l-3.28 13.63c-.1.4-.09.8-.03 1.2z"/><path fill="#fce87b" d="M18.26,58.59c.16,.09,.32,.15,.49,.21h0l23.12-5.41c.71-.17,1.3-.65,1.61-1.31l4.89-10.49-9.62-8.06-20.48-1.78-3.97,12.88,3.97,13.97Z"/><path fill="#f8c228" d="M18.27,31.75l27.84,14.68,2.25-4.84-7.94-6.65-22.12-3.19h-.03Z"/><path fill="#fdda5c" d="M48.81,28.24l-3.28-8.09-10.15-.5-17.1,12.1h0l30.1,9.85,6.41,2.1c0-.45-.06-.9-.24-1.32l-5.73-14.13Z"/><path fill="#fce87b" d="M40.96,9.07l-15.94,1.9h-.06l-1.14,.16c-.92,.12-1.66,.81-1.84,1.72l-3.71,18.89,27.26-11.6-4.49-11.07s-.05,0-.08,0h0Z"/><path fill="#fdda5c" d="M18.26,58.59V31.75l-12.2,11.64c.08,.55,.29,1.08,.65,1.52l10.56,12.89c.27,.33,.61,.59,.98,.79Z"/><path fill="#e7a21c" d="M55.11 16.07l-8.45 6.87-1.13-2.79 9.58-4.08zM35.93 7.14l-10.91 3.84 16.02-1.89-5.11-1.95zM6.08 43.38l8.61-13.6 3.58 1.97-12.19 11.63z"/></svg>