<svg xmlns="http://www.w3.org/2000/svg" viewBox="0 0 64 64"><path fill="#8598ab" d="M27.58,31.43l-1.94,20.53,5.4,3.29c.59,.36,1.34,.36,1.93,0l5.4-3.29-1.94-20.53h-8.85Z"/><path fill="#758797" d="M29.59,31.43l-2.13,1.22-1.83,19.31,2.69,1.64c1.22-6.34,2.45-12.67,3.67-19.01l2.98,15.42,.69,3.59,2.69-1.64-1.83-19.31-2.13-1.22h-4.82Z"/><path fill="#d7e5eb" d="M47.7,24.49l-7.8,.8-5.5,6.14,5.5,7.51,16.43,5.08c.04-.28,0-.57-.11-.82-2.86-6.23-5.7-12.47-8.53-18.71Z"/><path fill="#f0f4f6" d="M45.07,18.66l-14.41,4.56,1.35,8.21h2.4l13.29-6.95c-.88-1.94-1.75-3.88-2.63-5.82h0Z"/><path fill="#9dacb9" d="M32,5c-.37,0-.74,.04-1.1,.12l-4.21,.92c-.68,.15-1.23,.66-1.43,1.32l-.82,2.73,7.56,2.5,7.56-2.5-.82-2.73c-.2-.67-.75-1.17-1.43-1.32l-4.21-.92c-.36-.08-.73-.12-1.1-.12Z"/><path fill="#ffa6c5" d="M39.56,10.1h-7.56l-2.71,7.26,2.71,8.14,13.06-6.82c-1.14-2.51-2.27-5.02-3.41-7.54-.26-.57-.97-1.03-1.59-1.03h-.5Z"/><path fill="#d7e5eb" d="M16.3,24.49l7.8,.8,5.5,6.14-5.5,7.51-16.43,5.08c-.04-.28,0-.57,.11-.82,2.86-6.23,5.7-12.47,8.53-18.71Z"/><path fill="#e2eef2" d="M18.94,18.66c-.88,1.94-1.75,3.88-2.63,5.82l13.29,6.95h2.4v-5.95l-3.79-5.37-9.28-1.46Z"/><path fill="#fd91ba" d="M32,25.49l-13.06-6.82c1.14-2.51,2.27-5.02,3.41-7.54,.26-.57,.97-1.03,1.59-1.03h8.06v15.39Z"/><path fill="#e2eef2" d="M7.67,44.02l21.93-12.58-3.97,20.53-1.26,6.52c-.09,.49-.68,.68-1.05,.35l-15.18-13.85c-.26-.24-.42-.6-.47-.97h0Z"/><path fill="#c0d8df" d="M7.67,44.02l17.85-14.71,4.08,2.13L7.67,44.02Z"/><path fill="#e2eef2" d="M56.33,44.02l-21.93-12.58,3.97,20.53,1.26,6.52c.09,.49,.68,.68,1.05,.35l15.18-13.85c.26-.24,.42-.6,.47-.97h0Z"/><path fill="#c0d8df" d="M56.33,44.02l-17.85-14.71-4.08,2.13,21.93,12.58Z"/></svg>