<svg xmlns="http://www.w3.org/2000/svg" viewBox="0 0 64 64"><path fill="#6df4c0" d="M21.62,42.77l7.24-6.49v-7.18l-10.55-3.13c-.3-.09-.61-.08-.89,.02l-.99,5.18,3.05,3.06,2.14,8.54Z"/><path fill="#9af6d3" d="M53.21,19.23c.56,0,1-.45,1-1.01v-5.17c0-.61-.37-1.16-.93-1.39l-7.02-2.93-5.83,.45-2.56,2.86-3.81,7.19,7.56,1.58,4.55-1.58,7.03-.02Z"/><path fill="#6df4c0" d="M46.18 19.24h-12.11l1.95 7.89 9.69 7.95.46-15.84zM19.49 34.23l-2.06-8.24c-.27.09-.51.26-.69.49l-6.86 8.78c-.22.28.02.68.37.61l9.24-1.64z"/><path fill="#3aedbc" d="M33,51.65l-3.58,1.81-1.72,5.28c.23,.16,.52,.26,.81,.26h12.13l-7.64-7.35Z"/><path fill="#6df4c0" d="M21.62 42.77l5.54 15.28c.1.29.29.52.53.69l5.3-7.09h0l2.73-8.88-4.73-2.26-9.37 2.26zM45.71 35.08l-3.1 1.76-.36 3.48 6.47.19c.41.01.65-.45.41-.78l-3.42-4.65z"/><path fill="#9af6d3" d="M45.71,35.08l-11.64-15.84-5.22,9.86-7.23,13.67h18.01c.63,0,1.21-.32,1.56-.84l1.06-1.6,3.46-5.24h0Z"/><path fill="#3aedbc" d="M36.76,5.01c-.31,.03-.61,.13-.88,.3l-4.64,3.08c-.36,.24-.3,.78,.09,.94l6.54,2.71,.63-3.66-1.75-3.38Z"/><path fill="#31c9a0" d="M36.76,5.01c-.31,.03-.61,.13-.88,.3l-1.62,1.08,3.62,5.65,.44-4.03-1.55-3.01Z"/><path fill="#6df4c0" d="M36.76,5.01l1.12,7.04,8.39-3.31-8.62-3.59c-.28-.12-.59-.16-.88-.14Z"/><path fill="#3aedbc" d="M34.07 19.24l11.76 11.91-.12 3.93-11.64-15.84zM45.71 35.08l-3.46 5.24 2.12.06 1.33-5.3zM21.62 42.77l4.31-14.53 2.91.87-7.23 13.67z"/><path fill="#3aedbc" d="M21.62,42.77h14.1l-13.07,2.85-1.03-2.85Z"/><path fill="#31c9a0" d="M27.7,58.74l7.26-5.21-1.95-1.88-5.3,7.09Z"/><path fill="#3aedbc" d="M34.07,19.24l12.03,2.68v-2.67h-12.03Z"/><path fill="#31c9a0" d="M17.43,26.02l-.52,8.67,2.57-.46-2.05-8.21Z"/></svg>