<svg xmlns="http://www.w3.org/2000/svg" viewBox="0 0 64 64"><path fill="#fcbfad" d="M10.86,44.05l5.5-1.79-1.09-4.64-9.8-5.1c-.28-.15-.58,.15-.43,.43l5.31,10.28c.15,.29,.32,.56,.51,.83h0Z"/><path fill="#feccba" d="M33.06 50.52l2.84-9.67-2.86-9.75h-12.3c-.63.01-1.22.32-1.58.84l-3.89 5.67-4.41 6.43c.2.28.42.54.66.79l12.54 12.66c.4.4 1.04.41 1.45.03l7.55-7.01zM50.79 48.75c.09-.27.13-.56.14-.84V27.29l-9.01-4.05-8.88 4.06 3.59 10.71 14.17 10.73z"/><path fill="#fcbfad" d="M33.04,27.31v3.79l.02,19.41,9.66-3.38,1.72-6.05-11.41-13.77Z"/><path fill="#fbac90" d="M33.04,27.31l10.34,17.54,1.07-3.77-11.41-13.77Z"/><path fill="#feccba" d="M58.47,15.94l-2.59-4.4-6.42-1.46-3.49-2.27c-.55-.36-1.2-.55-1.86-.55h-6.05c-.64,0-1.24,.29-1.64,.79l-3.59,4.43c-.21,.26-.4,.54-.56,.84l5.61,9.95,13.06,4.03,7.09-10.44c.19-.28,.34-.59,.45-.91h0Z"/><path fill="#fbac90" d="M55.41,6.2c-.35-.08-.71,.04-.94,.31l-2.97,3.44,5.12,1.42,2.21-1.86c-.11-.27-.28-.51-.49-.71l-2.48-2.35c-.13-.12-.28-.2-.45-.24h0Z"/><path fill="#fcbfad" d="M58.83 9.5l-7.32.45-2.05.13 9.02 5.86c.1-.3.17-.61.19-.93l.33-4.51c.02-.34-.03-.68-.17-.99h0zM50.93 27.29l-18.67-13.98c-.16.29-.3.59-.41.9l-4.32 12.16c-.16.46.18.95.67.95h4.82l17.9-.02z"/><path fill="#fbac90" d="M44.45,41.09l-11.39,9.43,9.97,7.11c.46,.33,1.09,.23,1.43-.22l5.86-7.7c.21-.29,.38-.62,.47-.97l-6.35-7.66Z"/><path fill="#ed9678" d="M58.83,9.5l-5.84-1.27-1.48,1.72,7.32-.45Z"/><path fill="#fbac90" d="M58.47 15.94l-5.52-6.08-3.5.21 9.02 5.86zM10.86 44.05l2.08-7.64 2.33 1.21-4.41 6.43z"/><path fill="#ed9678" d="M44.45,41.09l-2.21,1.83,5.79,9.82,2.3-3.02c.21-.29,.38-.62,.47-.97l-6.35-7.66Z"/></svg>