<svg xmlns="http://www.w3.org/2000/svg" viewBox="0 0 64 64"><path fill="#3aedbc" d="M48.72,9.03l-.16,3.86,2.24,2.33h0l5.12-1.55c.36-.11,.42-.6,.09-.79l-6.5-3.63c-.25-.13-.52-.2-.79-.22Z"/><path fill="#6df4c0" d="M38.66 13.27l4.94 6.51 9.12 1.76c.04-.27.02-.55-.07-.81l-.93-2.76-.92-2.75-2.08-6.19c-.34-.04-.69.01-1.01.15l-9.05 4.09zM31.96 26.31l-4.39 6.32c-.19.28-.33.6-.41.93l4.42 5.56 4.95.06-.04-9.48-4.53-3.4z"/><path fill="#9af6d3" d="M36.53,39.18l-9.37-5.62c-.08,.3-.1,.6-.08,.91l2.19,24.12c.04,.38,.51,.54,.76,.25l10.55-11.85c.4-.45,.44-1.1,.11-1.6l-4.16-6.22h0Z"/><path fill="#6df4c0" d="M24.43,5.08s-.08-.03-.11-.04c-.32-.05-.64-.04-.96,.02l-15.23,3.22c-.38,.08-.49,.58-.17,.8L31.97,26.31l1.7-6.07L24.43,5.08Z"/><path fill="#31c9a0" d="M24.43,5.08l3.36,18.24,4.17,2.99,1.42-5.07L24.43,5.08Z"/><path fill="#9af6d3" d="M24.43,5.08l7.54,21.24,4.57,12.87,15.75-16.75c.23-.25,.38-.56,.44-.89l-14.06-8.27-13.44-7.91c-.25-.14-.51-.23-.79-.29h0Z"/><path fill="#31c9a0" d="M48.72 9.03l2.08 6.19h0l1.58-.48-3.66-5.71zM29.77 29.47l6.76 9.71-4.57-12.87-2.2 3.16z"/><path fill="#3aedbc" d="M52.72,21.54l-11.54-9.4-2.51,1.14,14.05,8.27Z"/></svg>