<svg xmlns="http://www.w3.org/2000/svg" viewBox="0 0 64 64"><path fill="#fd91ba" d="M47.08 15.08s-.03 0-.05 0c-.34.01-.66.1-.96.25l-5.84 3.05c-.36.19-.65.46-.86.8l3.31 4.52 4.56.46 1.78-2.6-1.94-6.48zM14.09 32.66l5.57-2.46.57-4.09-4.41-2.44c-.29-.14-.59-.23-.9-.28l-3.11 2.21.36 2.69 1.92 4.36zM37.36 48.91l1.83-9.4-2.98-5.8-6.63-1.02-6.95 2.88.9 6.56c.09.66.52 1.22 1.13 1.49l11.89 5.16c.26.11.54.15.81.13z"/><path fill="#fc76a8" d="M47.24,24.16l-7.87-4.99c-.14,.23-.25,.48-.31,.75l-2.85,13.79,1.14,15.2c.36-.03,.71-.16,.99-.41l7.28-6.31c.52-.45,.83-1.09,.86-1.78l.75-16.26Z"/><path fill="#fc76a8" d="M47.08,15.08l.16,9.08,10.7,1.75c.56,.09,1.06-.34,1.06-.9h0c0-.7-.21-1.39-.59-1.98l-2.44-3.71c-.39-.58-.93-1.04-1.58-1.32l-6.37-2.74c-.29-.13-.61-.19-.93-.18h0Z"/><path fill="#ffa6c5" d="M22.64 35.57l13.58-1.86-12.42-9.84c-.48-.38-1.16-.33-1.58.12l-2 2.13-6.14 6.55-3.65 3.9c-.24.26-.03.69.33.64l11.88-1.63zM12.17 28.3l2.75-4.91c-.37-.06-.75-.06-1.12 0l-3.87.73c-.68.13-1.28.51-1.68 1.07l-3.18 4.47c-.2.29.07.67.41.58l6.69-1.95z"/><path fill="#ef5b91" d="M47.08 15.08l2.56 9.48-2.4-.39-.16-9.08zM39.37 19.18l7.87 4.99-.08 1.75-7.79-6.74z"/><path fill="#fc76a8" d="M36.22,33.71l-13.31,3.81-.27-1.95,13.58-1.86Z"/><path fill="#ef5b91" d="M36.22,33.71l1.14,15.2c.36-.03,.71-.16,.99-.41l2.87-2.48-5-12.31Z"/><path fill="#fc76a8" d="M14.92,23.39l-5.32,5.65,2.57-.75,2.75-4.91Z"/></svg>