<svg xmlns="http://www.w3.org/2000/svg" viewBox="0 0 64 64"><path fill="#f0f4f6" d="M32,34.59h0l1.28,5.01,4.02,2.29h0l4.39,2.01,5.21-4.46h0l-.94-5.07-5.39-2.56h0l-4.6-1.46-3.98,4.25h0Z"/><path fill="#e2eef2" d="M32,25.57l-2.84-3.2-6.37-.46h0l-2.55,5.28,3.18,4.61h0l4.66,3.84,3.92-1.05h0l1.77-5.06-1.77-3.96Z"/><path fill="#f0f4f6" d="M23.42,31.8l-4.57,.5-1.76,7.14h0l5.33,4.38,4.27-1.93,4.77-2.59,.53-4.7h0l-8.58-2.79Z"/><path fill="#e2eef2" d="M32,50.27l4.93-2.91,.37-5.47h0l-5.3-7.3h0l-2.95,4.06-2.35,3.24h0l.98,5.53,4.33,2.85Z"/><path fill="#d7e5eb" d="M32,25.57v9.02h0l8.58-2.79h0l2.24-5.89-1.6-4h0l-4.97-.94-4.24,4.6Z"/><path fill="#9af6d3" d="M17.09,39.43l6.33-7.63-3.66-4.9-14.63-1.04c-.14,.4-.07,.84,.2,1.17l11.76,12.41Z"/><path fill="#6df4c0" d="M5.13,25.86l18.29,5.94-.64-9.89-16.81,3.12c-.41,.11-.73,.42-.84,.83Z"/><path fill="#e5c9f3" d="M32,50.27l-5.3-8.38-4.93,1.92-6.37,13.64c.33,.26,.78,.33,1.17,.17l15.44-7.35h0Z"/><path fill="#d6b1ed" d="M26.7,41.89l-9.61-2.45-2.22,16.95c-.02,.42,.18,.83,.53,1.06l11.3-15.56Z"/><path fill="#62d9fa" d="M46.91,39.44l-9.61,2.45,2.42,7.09,8.92,8.53c.35-.26,.54-.69,.48-1.12l-2.22-16.95Z"/><path fill="#0acffb" d="M48.65,57.51l-11.35-15.62-5.3,8.38h0l15.44,7.35c.39,.19,.86,.14,1.21-.11h0Z"/><path fill="#fce87b" d="M40.58,31.8h0l7.17,.83,11.19-6.8c-.13-.42-.49-.72-.92-.8l-16.81-3.12-.64,9.89h0Z"/><path fill="#fdda5c" d="M58.94,25.84l-18.36,5.97,6.33,7.63,11.76-12.41c.3-.32,.4-.77,.27-1.19Z"/><path fill="#fd91ba" d="M32,6.34c-.42-.02-.82,.19-1.05,.55l-8.16,15.02,9.21,3.66,2.37-6.56-2.37-12.67Z"/><path fill="#ffa6c5" d="M32,6.34V25.57l9.21-3.66-8.16-15.02c-.23-.36-.63-.56-1.05-.55Z"/></svg>