<svg xmlns="http://www.w3.org/2000/svg" viewBox="0 0 64 64"><path fill="#fca65c" d="M7.45 21.19l9.65-5.88L7.56 5.16c-.16.12-.27.31-.27.54v14.64c0 .29.06.58.16.85h0zM31.17 5.16l-9.54 10.15 9.81 6.04V5.69c0-.22-.11-.41-.27-.53z"/><path fill="#f5934a" d="M7.56 5.16l9.21 9.8-1.95 1.75-3.16 1.94L7.56 5.16zM31.17 5.16l-9.21 9.8 1.95 1.75 3.16 1.94 4.1-13.5z"/><path fill="#feb87e" d="M8.05,5.01c-.18-.02-.35,.04-.49,.15l5.77,10.15h12.07l5.77-10.15c-.18-.15-.43-.21-.67-.11l-11.13,4.22L8.23,5.05c-.06-.02-.12-.04-.18-.04h0Z"/><path fill="#f0f4f6" d="M12.78,26.84v26.44c0,.26,.05,.52,.14,.77l13.81-10.57,4.71-22.13-18.65,5.49Z"/><path fill="#e2eef2" d="M31.44,21.35L12.78,44.91V26.84l18.65-5.49Z"/><path fill="#fca65c" d="M31.44,21.34L12.92,54.04c.12,.35,.31,.68,.58,.95l3.3,3.3c.46,.46,1.07,.71,1.72,.71h13.49l19.14-7.05,1.15-16.09c-.23-.27-.49-.51-.78-.71l-20.07-13.81Z"/><path fill="#f5934a" d="M49.88,34.03l-5.27,14.03-18.3,10.94h5.69l19.14-7.05,1.15-16.09c-.23-.27-.49-.51-.78-.71l-1.63-1.12Z"/><path fill="#feb87e" d="M52.29,35.86l-4.72,13.71,6.76-.99,2.27-4.48c-.08-.33-.2-.65-.36-.96l-3.44-6.53c-.14-.27-.32-.52-.52-.75Z"/><path fill="#fdc99c" d="M25.4,15.31l-6.04-6.03-6.03,6.03h0l-5.88,5.88c.12,.32,.3,.62,.55,.87l4.78,4.78,1.23,1.23,5.16,1.6,5.54-1.6h0l6.72-6.72-6.04-6.04Z"/><path fill="#9dacb9" d="M14.01,28.07l3.74,3.74c.89,.89,2.33,.89,3.22,0l3.74-3.74H14.01Z"/><path fill="#fdc99c" d="M56.6,44.1l-9.03,5.47h0l-15.57,9.43h23.7c.56,0,1.01-.45,1.01-1.01v-12.96c0-.32-.04-.63-.11-.94h0Z"/><path fill="#fca65c" d="M19.36 9.27l-7.16 4.07 1.12 1.97 6.03-6.04zM19.36 9.27l7.16 4.07-1.12 1.97-6.03-6.04zM56.6 44.1l-7.64 1.43-1.39 4.04 9.03-5.47z"/></svg>