<svg xmlns="http://www.w3.org/2000/svg" viewBox="0 0 64 64"><path fill="#e2eef2" d="M18.16,25.11l2.55-5.01-2.55-4.8-2.84,1.19c-.33,.14-.65,.3-.96,.48l-2.98,3.9,.93,2.91,5.85,1.32Z"/><path fill="#d7e5eb" d="M45.08,50.85l-4.67-3.12-4.57,3.06,4.16,7.92c.2,.38,.75,.39,.96,.01l3.86-6.98c.15-.28,.24-.58,.27-.89h0Z"/><path fill="#e2eef2" d="M41.53 40.07l-6.63 1.67-2.74 8.85c.27.11.56.18.86.18l2.83.02 9.24.06c.03-.32 0-.64-.12-.95l-3.43-9.83zM45.84 12.72l-2.65 7.47 2.65 4.92 5.85-1.32h0l.63-3.64-2.68-3.17c-.31-.18-.63-.34-.96-.48l-2.84-1.19v-2.58h0z"/><path fill="#f0f4f6" d="M25.86,5c-.65,0-1.27,.26-1.72,.72l-5.26,5.29c-.45,.46-.71,1.07-.71,1.72h0v21.5c0,.65,.24,1.28,.67,1.77l12.49,14.02c.23,.26,.52,.45,.83,.58l9.37-10.51,3.64-4.08h0c.43-.49,.67-1.12,.67-1.77V12.72c0-.64-.26-1.26-.71-1.71l-5.26-5.29c-.46-.46-1.08-.72-1.72-.72h-12.28Z"/><path fill="#d7e5eb" d="M14.34,17.05l.34,7.27-2.37-.53h0l-.42-2.42,2.45-4.32Z"/><path fill="#f0f4f6" d="M12.31,23.79l2.05-6.82c-.27,.16-.53,.33-.78,.51l-5.62,4.18c-.46,.34-.57,.97-.26,1.45l2.74,4.25c.22,.33,.72,.26,.84-.12l1.04-3.46Z"/><path fill="#d7e5eb" d="M49.66,17.05l-.34,7.27,2.37-.53h0l.42-2.42-2.45-4.32Z"/><path fill="#f0f4f6" d="M49.64,16.97l2.05,6.82,1.04,3.46h0c.12,.38,.62,.45,.84,.12l2.74-4.25c.31-.48,.19-1.11-.26-1.45l-5.62-4.18c-.25-.19-.51-.35-.78-.51h0Z"/><path fill="#c0d8df" d="M35.84,50.79l1.61,3.07,7.63-3.01-9.24-.06Z"/><path fill="#d7e5eb" d="M32.16,50.58l10.59-7.01-1.22-3.5-9.37,10.51Z"/></svg>