<svg xmlns="http://www.w3.org/2000/svg" viewBox="0 0 64 64"><path fill="#fca65c" d="M18.68,41.84v-2.62l-2.36-1.31c-.13,.12-.24,.27-.29,.45l-1.19,3.71c-.09,.27,.15,.54,.43,.48l3.41-.71Z"/><path fill="#f5934a" d="M16.33,37.92l.89,4.23,1.46-.3v-1.17l-2.36-2.75Z"/><path fill="#feb87e" d="M19.77 42.41l2.42-1.78.42-3.81-5.75.83c-.2.03-.39.12-.54.26l2.36 3.93 1.09.57zM24.85 55.36l-2.59-.29-1.2 3.06c.1.1.24.17.4.17h6.17c.22 0 .32-.27.15-.42l-2.93-2.53zM35.22 47.78l3.26-6.22-1.99-7.36c-.04.37-.33.67-.7.72l-13.17 1.91 2.37 9.2 3.74 1.33 6.5.42z"/><path fill="#fca65c" d="M39.93,55.81l-1.58,.47v2.56c.15,.1,.34,.16,.54,.16h6.46c.16,0,.22-.22,.07-.3l-5.49-2.89Z"/><path fill="#f5934a" d="M39.93,55.81l-1.15,.35-.45,2.68,3.26-2.15-1.67-.88Z"/><path fill="#feb87e" d="M43.89 40.45l-6.2.34-2.48 6.99 2.73 10.66c.09.17.23.31.39.41l1.59-3.03 3.81-14.9c.05-.16.11-.31.16-.47zM43.61 8.67l-1.24 3.93 1.35 2.1h4.83c.35 0 .64-.29.64-.64v-2.04c0-.39-.22-.75-.57-.93l-4.44-2.28c-.18-.09-.37-.15-.57-.15z"/><path fill="#fca65c" d="M43.61,8.68v.04c-.02,.06-.4,2.59-.71,4.7l.82,1.28h1.66l-1.77-6.02Z"/><path fill="#fdc99c" d="M43.02 8.78l-4.22 1.79c-.36.15-.61.49-.66.88l-1.66 22.75-1.26 13.58 8.68-7.33c.08-.24.13-.48.13-.73l-.31-25.01-.11-6.03c-.2 0-.4.03-.59.11h0zM28.72 47.36l-6.11-10.53-2.84 5.59 1.14 15.25c-.02.18.04.34.16.46l3.79-2.77h0l3.87-8.01z"/></svg>