<svg xmlns="http://www.w3.org/2000/svg" viewBox="0 0 64 64"><path fill="#00bff8" d="M32,16.17l-1.65,22.11,17.44-4.29c-.64,0-1.25-.29-1.65-.79l-13.5-16.76c-.16-.18-.4-.28-.64-.27h0Z"/><path fill="#0acffb" d="M32,16.17c-.24,0-.48,.09-.64,.27l-13.5,16.76c-.4,.5-1.01,.79-1.65,.79l15.79,2.46V16.17Z"/><path fill="#62d9fa" d="M32 33.99H5.57c-.44 0-.72.49-.48.87l7.5 12.14c.2.3.47.53.8.67l14.6-6.49 4.01-7.18zM32 33.99l3.52 7.21 15.1 6.47c.33-.14.6-.37.8-.67l7.5-12.14c.23-.38-.04-.87-.48-.87h-26.43z"/><path fill="#0acffb" d="M32,33.99l-18.62,13.68c.23,.12,.49,.18,.75,.19H49.86c.26-.01,.52-.08,.75-.19l-18.62-13.68Z"/></svg>