<svg xmlns="http://www.w3.org/2000/svg" viewBox="0 0 64 64"><path fill="#ffa6c5" d="M40.69,6.35c-.71,0-1.37,.33-1.8,.9l-6.9,9.15-4.29,15.82,4.29,25.4c.31,.01,.61-.09,.86-.28l25.28-21.12c.28-.24,.5-.53,.65-.87l-6.59-11.79,6.59-7.16c-.11-.32-.27-.62-.47-.89l-6.25-8.26c-.43-.56-1.09-.89-1.8-.89h-9.58Z"/><path fill="#fd91ba" d="M13.73,6.35c-.71,0-1.37,.33-1.8,.89L5.68,15.5c-.2,.27-.36,.57-.47,.89l10.85,5.37-10.84,13.58c.15,.34,.37,.63,.64,.87l25.28,21.12c.25,.19,.55,.29,.86,.28V16.4l-6.9-9.15c-.42-.56-1.09-.9-1.8-.9H13.73Z"/><path fill="#ffa6c5" d="M32,16.4H5.21c-.13,.36-.2,.74-.21,1.12v16.86c0,.34,.08,.67,.22,.97l26.78-18.95Z"/><path fill="#ffd0e0" d="M32,16.4l26.79,18.96c.14-.31,.21-.64,.21-.97V17.52c0-.38-.07-.76-.21-1.12h-26.79Z"/><path fill="#fc76a8" d="M32,16.4L5.22,35.35h0c.15,.34,.37,.64,.64,.88l4.55,3.8,21.59-23.63Z"/><path fill="#fd91ba" d="M32,16.4l26.78,18.95h0c-.15,.34-.37,.64-.64,.88l-4.55,3.8-21.59-23.63Z"/></svg>