<svg xmlns="http://www.w3.org/2000/svg" viewBox="0 0 64 64"><path fill="#e2eef2" d="M40.02,29.63l-22.78,3.44,4.18,9.32,5.42,3.48,10.21,1.2,4.53-8.2-1.57-9.25Z"/><path fill="#9dacb9" d="M43.69,8.1l-5.72,2.93-1.74,9.29,3.8,9.31,5.27-13.92-1.61-7.61Z"/><path fill="#8598ab" d="M50.24,11.03l-1.62-2.93h-4.94l-1.01,5.91,7.56-2.97Z"/><path fill="#d7e5eb" d="M11.07,40.95l-.39-3.66-3.32-2.52c-.21,.19-.37,.42-.46,.7l-1.87,5.84c-.14,.43,.24,.84,.68,.75l5.36-1.12Z"/><path fill="#e2eef2" d="M20.58,50.9l-3.18-.13-2.59,4.87c.16,.16,.38,.27,.63,.27h9.7c.35,0,.51-.43,.24-.66l-4.8-4.35Z"/><path fill="#c0d8df" d="M7.37,34.79l1.25,6.68,2.45-.51-.27-2.51-3.43-3.65Z"/><path fill="#e2eef2" d="M17.24,33.07l-9.88,1.71,3.71,6.17,4.71,3.4,2.71-4.15-1.25-7.14Z"/><path fill="#d7e5eb" d="M44.46,50.9l-2.88,.23,.38,4.53c.26,.16,.56,.25,.88,.25h10.15c.26,0,.34-.35,.12-.47l-8.64-4.54Z"/><path fill="#c0d8df" d="M44.46,50.9l-2.32,.18c-.17,.54-.32,1.11-.43,1.67l.24,2.91,5.53-3.17-3.03-1.59Z"/><path fill="#e2eef2" d="M50.75 38.71l-8.98 1.8-4.72 6.56 4.29 7.95c.14.27.36.49.61.64l2.5-4.76 5.99-11.4c.13-.25.23-.52.3-.79h0zM50.24 11.03l-1.93 6.01 2.1 3.47h7.58c.56 0 1.01-.45 1.01-1.01v-3.2c0-.62-.34-1.18-.89-1.46l-6.97-3.58c-.28-.14-.58-.22-.89-.23z"/><path fill="#f0f4f6" d="M42.68 14.01l-2.66 15.62-2.97 17.44 13.69-8.36c.1-.36.15-.73.15-1.1l-.48-17.1-.17-9.48c-.16 0-.32 0-.47.03-.16.03-.31.07-.46.13l-6.63 2.81zM26.85 45.87l-9.6-12.8-1.46 11.29-1.22 10.55c-.04.28.06.54.24.73l5.78-4.74h0l6.26-5.02z"/><path fill="#d7e5eb" d="M50.24,11.03l.17,9.48h3.79l-3.96-9.48Z"/></svg>