<svg xmlns="http://www.w3.org/2000/svg" viewBox="0 0 64 64"><path fill="#f0f4f6" d="M14.52,14.67c-.28,.14-.53,.35-.72,.61L5.58,26.81c-.18,.25-.31,.53-.41,.81l28.23,16.45,25.43-16.45c-.1-.29-.23-.56-.41-.81l-8.22-11.53c-.19-.26-.44-.47-.72-.61H14.52Z"/><path fill="#0acffb" d="M14.38,49.53l11.79-5.81,5.82-16.11H14.38l-3.42,10.52,3.42,11.4Z"/><path fill="#62d9fa" d="M14.38,49.53V27.62H5.17c-.11,.32-.17,.66-.17,1v19.91c0,.55,.45,1,1,1H14.38Z"/><path fill="#0acffb" d="M49.62,49.53l-6.25-11.65-11.37-10.26-2.34,15.16,2.34,6.75h17.62Z"/><path fill="#62d9fa" d="M32,49.53V27.62L14.38,49.53h17.62Z"/><path fill="#0acffb" d="M49.62,27.62l-3.51,10.8,3.51,11.11h8.38c.55,0,1-.45,1-1V28.62c0-.34-.06-.68-.17-1h-9.22Z"/><path fill="#62d9fa" d="M40.81,27.62h-8.81l17.62,21.91V27.62h-8.81Z"/><path fill="#e2eef2" d="M32 14.46l8.81 13.16 8.67-12.95c-.27-.13-.56-.21-.86-.21h-16.62zM15.38 14.46c-.3 0-.6.07-.86.21l8.67 12.95 8.81-13.16H15.38z"/><path fill="#00bff8" d="M32,27.62l-17.62,14.95v6.97l17.62-21.91Z"/><path fill="#0acffb" d="M14.38,42.57l-8.21,6.96H14.38v-6.96Z"/></svg>