<svg xmlns="http://www.w3.org/2000/svg" viewBox="0 0 64 64"><path fill="#feb87e" d="M50.45,30.58l-21.53-2.49,3.08,30.87c.22,.01,.42-.09,.55-.26l17.65-27.27c.16-.25,.25-.55,.25-.85h0Z"/><path fill="#fdc99c" d="M32,58.96V28.03l-18.45,2.55c0,.3,.09,.6,.26,.85l17.65,27.27c.13,.17,.33,.27,.55,.26h0Z"/><path fill="#62d9fa" d="M44.02,20.5H19.98c-.32,.14-.59,.37-.78,.66l-5.41,8.56c-.16,.26-.25,.55-.25,.86H50.45c0-.3-.08-.6-.24-.86l-5.41-8.56c-.19-.29-.46-.52-.78-.66h0Z"/><path fill="#0acffb" d="M42.28 20.31l-9.65-1.96-10.91 1.96h-.97c-.27.01-.53.08-.77.2l12.02 10.07 12.02-10.07c-.24-.12-.51-.19-.78-.2h-.97zM33.7 5.89l-3.72 1.91-1.35 3.98-1.6 1.86 6.67 2.45 5.63-2.45c-.14-.28-.29-.56-.46-.82l-4.45-6.26c-.19-.27-.44-.5-.72-.66h0z"/><path fill="#62d9fa" d="M39.33,13.64h-13.77c-.61,0-1.17,.37-1.41,.93l-2.43,5.73h20.56l-2.43-5.73c-.16-.32-.33-.63-.52-.93Z"/><path fill="#00bff8" d="M29.38,5.01c-.52-.08-.98,.33-.96,.85l.21,5.92,5.07-5.89c-.26-.16-.56-.27-.86-.32l-3.46-.56Z"/><path fill="#00aee2" d="M33.7,5.89l-5.19,2.52,.12,3.37,5.07-5.89Z"/><path fill="#00bff8" d="M39.33,13.64l-10.7-1.86-1.6,1.86h12.3Z"/><path fill="#0acffb" d="M21.72,20.31l19.42-2.69,1.14,2.69H21.72Z"/></svg>