<svg xmlns="http://www.w3.org/2000/svg" viewBox="0 0 64 64"><path fill="#9dacb9" d="M32,5c-.2,0-.4,.01-.59,.03h0c-.2,.02-.39,.05-.59,.1l-4.5,.98c-.73,.16-1.31,.7-1.53,1.42l-.87,2.92,8.1,2.66,8.06-2.66-.88-2.92c-.21-.71-.8-1.26-1.53-1.42l-4.5-.98c-.19-.04-.39-.07-.59-.1-.2-.02-.39-.03-.59-.03h0Z"/><path fill="#758797" d="M29.48,23.72l-7.02,10.66,1.14,19.32,7.37,5.02c.32,.19,.68,.29,1.03,.29s.71-.1,1.03-.29l7.37-5.02-.21-18.78-5.68-11.28-5.04,.09Z"/><path fill="#f0f4f6" d="M23.6 53.69l5.88-29.97-2.64-5.68-5.6 1.86L6.11 45.82s-.16.67-.09 1.02c.07.35.24.67.48.9l8.17 7.46c.86.78 2.08 1.02 3.17.62l5.76-2.12h0zM42.76 19.89l-5.3-.64-2.94 4.38 5.89 30.06 5.76 2.12c1.09.4 2.31.16 3.17-.62l8.17-7.46c.25-.22.41-.55.48-.9.07-.35-.09-1.02-.09-1.02l-15.14-25.93z"/><path fill="#8598ab" d="M23.38,10.45c-.67,0-1.43,.49-1.7,1.1-.87,1.93-1.75,3.89-2.36,5.24-.43,.95-.02,2.11,.9,2.59l1.01,.52c3.24,1.51,6.48,3.01,9.71,4.52,.5,.23,1.31,.24,1.82,0,3.33-1.51,6.66-3.02,9.98-4.52l1.01-.52c.93-.48,1.33-1.63,.9-2.59-.61-1.35-1.49-3.31-2.35-5.24-.27-.61-1.03-1.1-1.7-1.1H23.38Z"/><path fill="#e2eef2" d="M34.51 23.63l10.02-.7-1.61-3.13-8.41 3.82zM29.48 23.72l-10.02-.7 1.61-3.13 8.41 3.82z"/></svg>