<svg xmlns="http://www.w3.org/2000/svg" viewBox="0 0 64 64"><path fill="#a6e5f0" d="M13.18,41.4l-.82,4.1c-.13,.63,.04,1.28,.45,1.78l2.1,2.56c.41,.5,1.01,.78,1.66,.78h30.87c.64,0,1.25-.29,1.66-.78l2.1-2.56c.41-.5,.57-1.15,.45-1.78l-.82-4.1-18.31-3.05-19.33,3.05Z"/><path fill="#00bff8" d="M44.59,26.46l-11.9-12.78c-.18-.18-.43-.27-.69-.27l-2.53,10.48,2.53,8.57,4.91,1.9,7.68-7.9Z"/><path fill="#0acffb" d="M27.09,34.36l4.91-1.9V13.41c-.26,0-.51,.09-.69,.27l-11.9,12.78,7.68,7.9Z"/><path fill="#00bff8" d="M13.18,41.4h8.61l4.47-2.5,.83-4.54-2.91-6.45-7.3,1.75-6.4,6.39,2.7,5.34Z"/><path fill="#0acffb" d="M36.91,34.36v3.02l5.3,4.02h8.61l2.7-5.34-5-6.43-8.69-1.71-2.91,6.45Z"/><path fill="#d1f1f4" d="M31.39,28.65c-3.2,4.25-6.4,8.5-9.6,12.75h20.42c-3.2-4.25-6.4-8.5-9.6-12.75-.34-.45-.88-.45-1.22,0Z"/><path fill="#62d9fa" d="M39.83 27.91l13.7 8.14 4.98 2.96c.28.16.6-.12.48-.41l-5.82-13.7c-.23-.53-.82-.8-1.37-.64l-7.19 2.2-4.76 1.46zM10.48 36.06l13.7-8.14-4.76-1.46-7.19-2.2c-.55-.17-1.14.11-1.37.64l-5.82 13.7c-.12.29.2.58.48.41l4.98-2.96z"/><path fill="#00bff8" d="M40.11,27.97l12.07,10.76,1.52-2.57-13.59-8.19Z"/><path fill="#00aee2" d="M24.17,27.91l-12.35,10.81-1.35-2.67,13.7-8.14Z"/><path fill="#00aee2" d="M27.09 34.36l-1.38-7.57-4.4-2.37-1.89 2.03 4.76 1.46 2.91 6.45zM36.91 34.36l1.38-7.57 4.4-2.37 1.89 2.03-4.76 1.46-2.91 6.45z"/></svg>