<svg xmlns="http://www.w3.org/2000/svg" viewBox="0 0 64 64"><path fill="#feb87e" d="M50.96 27.29l-3.11-3.4-5.79-.13-1.05 4.64 2.98 6.08.22-.22 4.16-2.1 2.58-4.86h0zM18.9 58.18v-5.38l-3.94-.27-9.82 5.33c-.23.13-.14.48.12.48h12.76c.3 0 .6-.06.88-.17z"/><path fill="#fca65c" d="M34.15 44.55l9.84-10.08-1.93-10.72-15.17.53c-.4.02-.77.19-1.04.46l-2.53 13.98 10.84 5.83zM50.96 27.29l-6.96 7.18 7.82 3.23c.39.18.83-.15.76-.58l-1.61-9.83z"/><path fill="#feb87e" d="M53.01,9.26l-2.24,4.23,1.24,4.57h5.98c.56,0,1.01-.46,1.01-1.02v-1.95c0-.64-.8-1.63-.8-1.63l-5.19-4.2Z"/><path fill="#fca65c" d="M53.01,9.26l-1.9,5.5,.9,3.3h2.43l-1.43-8.8Z"/><path fill="#feb87e" d="M48.44,5.66c-.26-.03-.52,.17-.51,.46,.01,1.05,.02,2.09,.04,3.14l2.64,1.71,2.41-1.71-4.32-3.5s-.16-.1-.25-.11h0Z"/><path fill="#fca65c" d="M47.94 7.61c0 .55.01 1.1.02 1.66l1.79 1.17 3.25-1.17-5.06-1.66zM35.92 51.85l-5.6.82-1.81 5.46c.31.14.65.21.99.21h14.94c.31 0 .43-.4.18-.57l-8.7-5.93z"/><path fill="#f5934a" d="M35.92 51.85l-4.18.62-3.23 5.67 11.08-3.78-3.67-2.5zM34.56 44.13l.02-5.85c0-.56-.43-1.03-.99-1.08l-8.61-.69 9.58 7.62z"/><path fill="#feb87e" d="M24.99,36.51l-3.93,8.74,2.67,8.52,4.05,3.89c.21,.2,.46,.36,.73,.48l7.41-6.28-2.34-12.51c-.11-.6-.57-1.07-1.16-1.2l-7.43-1.63Z"/><path fill="#fdc99c" d="M53.01 9.26h-5.86c-.52 0-.98.34-1.12.84l-3.96 13.64 8.89 3.54 1.05-9.22 1-8.8zM25.85 24.75c-.14.15-.26.32-.34.52l-8.53 22.03-2.03 5.23 3.94 5.65c.31-.12.59-.3.83-.53l3.99-3.88h0l1.26-17.26.86-11.76z"/><path fill="#f5934a" d="M50.96,27.29l-6.96,7.18,3.42,1.41,3.55-8.59Z"/><path fill="#faa258" d="M14.96,52.53l-3.03,1.64,6.97,4-3.94-5.65Z"/></svg>