<svg xmlns="http://www.w3.org/2000/svg" viewBox="0 0 64 64"><path fill="#0acffb" d="M32,5.04l-2.46,20.8,24.47-2.59c-.07-.33-.25-.63-.51-.85L33.02,5.37c-.29-.22-.65-.34-1.02-.32Z"/><path fill="#62d9fa" d="M32,23.24l-2.86,11.26,2.86,24.45c.27,.01,.54-.12,.7-.34L53.83,24.37c.21-.34,.27-.74,.19-1.13h-22.01Z"/><path fill="#0acffb" d="M32,23.24l-9.69,6.16-1.58,12.09,10.57,17.12c.16,.22,.42,.35,.7,.34V23.24Z"/><path fill="#00bff8" d="M32,5.04c-.37-.01-.73,.1-1.02,.32L10.5,22.4c-.25,.22-.41,.52-.47,.85l14,3.93,7.98-3.93V5.04Z"/><path fill="#62d9fa" d="M32,23.24H10.02c-.1,.38-.04,.78,.15,1.13l10.57,17.12,11.26-18.25Z"/></svg>