<svg xmlns="http://www.w3.org/2000/svg" viewBox="0 0 64 64"><path fill="#f0f4f6" d="M6.9,26.09l3.49-2.32v-3.71h0l-3.96-.77c-.9-.18-1.66,.69-1.35,1.56l1.83,5.24Z"/><path fill="#9dacb9" d="M13.93,44.89l7.09-10.9,.04-11.85-10.68-2.07-3.48,6.03,6.13,17.52c.18,.51,.5,.95,.9,1.28h0Z"/><path fill="#758797" d="M58.47,30.37s-.07,0-.11,.01l-8.9,1.99-.6,4.43,4.59,1.28,5.55-6.61s0-1.09-.53-1.11h0Z"/><path fill="#8598ab" d="M36.62,25.15l-6.5,1.51-14.02,11.3-2.17,6.93c.51,.42,1.16,.68,1.86,.68h29.39c1.31,0,3.35-1.63,3.35-1.63l4.91-5.86-3.99-5.71-2.64-3.78c-.76-1.09-1.92-1.84-3.22-2.09l-6.97-1.35Z"/><path fill="#a8b8c6" d="M31.94,18.43c-.28,0-.57,.04-.84,.13l-10.04,3.57-4.96,15.83,12.94-11.32,3.45-8.12c-.18-.05-.37-.09-.56-.09h0Z"/><path fill="#758797" d="M32.5,18.52l-16.4,19.44,20.52-12.81-2.66-5.43c-.3-.62-.85-1.03-1.46-1.21h0Z"/><path fill="#5e7081" d="M53.45,38.08l.46-6.7-4.45,1,3.99,5.71Z"/></svg>