<svg xmlns="http://www.w3.org/2000/svg" viewBox="0 0 64 64"><path fill="#ffa6c5" d="M36.39,19.53l-4.42-2.71-4.35,2.71c.03,.33,0,.66-.08,.98l-7.07,29.21c-.14,.6,.08,1.22,.58,1.58l10.13,7.42c.49,.36,1.15,.36,1.63,0l10.13-7.42c.49-.36,.72-.99,.58-1.58l-7.07-29.21c-.07-.32-.09-.65-.06-.98h0Z"/><path fill="#fd91ba" d="M38.52,13.79l-2.05-3.83-4.48-1.51-4.04,1.45-2.48,3.89,1.93,4.8c.12,.3,.19,.62,.22,.94h8.76c.02-.32,.09-.64,.2-.94l1.93-4.8Z"/><path fill="#fc76a8" d="M32 8.46l4.04 1.45 2.48 3.89-.97 2.42-5.55-7.76zM32 8.45l-4.04 1.45-2.48 3.89.97 2.42 5.55-7.76z"/><path fill="#f0f4f6" d="M20.95 5c-.35.03-.6.36-.55.71l1.14 7.08c.09.58.59 1 1.17 1h2.76l6.52-5.34c-.32 0-.65-.05-.96-.16l-9.84-3.27c-.08-.03-.16-.04-.25-.03h0zM42.96 5c-.05 0-.11.01-.16.03l-9.84 3.27c-.31.1-.63.16-.96.16l6.52 5.34h2.76c.58 0 1.08-.42 1.17-1l1.14-7.08c.06-.4-.26-.73-.64-.71h0z"/></svg>