<svg xmlns="http://www.w3.org/2000/svg" viewBox="0 0 64 64"><path fill="#8598ab" d="M40.04,27.63l5.72-.27,3.62-6.31c-.12-.32-.26-.63-.42-.93l-6.87-12.67H21.9l-6.87,12.67c-.16,.3-.3,.61-.42,.93l3.49,6.05,5.85,.54h16.09Z"/><path fill="#d7e5eb" d="M23.07,48.24l8.04,4.2c.56,.29,1.23,.29,1.79,0l8.04-4.2-.89-20.6-8.04-6.23-8.05,6.23-.89,20.6Z"/><path fill="#e2eef2" d="M40.93,48.24l2.47,10.34c.1,.42,.63,.56,.93,.25l9.99-10.66c.24-.26,.41-.58,.48-.93l-7.39-13.26-10.54-3.81c-.1,.27-.13,.58-.06,.87l4.11,17.19Z"/><path fill="#d7e5eb" d="M36.86,30.32l15.18,20.29,2.29-2.44c.24-.26,.41-.58,.48-.93l-5.33-9.57c-5.16-3.37-10.8-6.88-12.62-7.35h0Z"/><path fill="#f0f4f6" d="M36.85,30.31l17.96,16.93c.05-.26,.05-.53,0-.79l-5.15-24.46c-.07-.32-.16-.64-.27-.94l-9.34,6.59-2.63,1.85c-.29,.21-.48,.5-.57,.82h0Z"/><path fill="#ffa6c5" d="M19.51,5.61h0l2.39,1.83-2.39-1.83Z"/><path fill="#fce87b" d="M28.77,12.7l-1.97,3.42c-.29,.5-.16,1.13,.29,1.48l4.91,3.8,4.91-3.8c.45-.35,.58-.98,.29-1.48l-1.97-3.42h-6.46Z"/><path fill="#9dacb9" d="M19.72,5c-.33,0-.47,.41-.21,.61l11.7,8.96c.47,.36,1.12,.36,1.59,0l11.7-8.96c.26-.2,.11-.61-.21-.61H19.72Z"/><path fill="#e2eef2" d="M23.08,48.21l-2.47,10.34c-.1,.42-.63,.56-.93,.25l-9.99-10.66c-.24-.26-.41-.58-.48-.93l7.39-13.26,10.54-3.81c.1,.27,.13,.58,.06,.87l-4.11,17.19Z"/><path fill="#d7e5eb" d="M27.15,30.3l-15.18,20.29-2.29-2.44c-.24-.26-.41-.58-.48-.93l5.33-9.57c5.16-3.37,10.8-6.88,12.62-7.35h0Z"/><path fill="#f0f4f6" d="M27.16,30.28L9.2,47.21c-.05-.26-.05-.53,0-.79l5.15-24.46c.07-.32,.16-.64,.27-.94l9.34,6.59,2.63,1.85c.29,.21,.48,.5,.57,.82h0Z"/></svg>