<svg xmlns="http://www.w3.org/2000/svg" viewBox="0 0 64 64"><path fill="#8598ab" d="M15.1,53.48l1.76-3.48h0l9.35-18.52-6.51,2.11-7.29,6.26c-.23,.38-.31,.82-.23,1.25l2.65,11.53c.07,.3,.16,.58,.28,.87Z"/><path fill="#d7e5eb" d="M16.01,6.51l2.96,.84,.34,2.28,.11,2.2-3.05,1.04-1.71-1.55c-.44-.4-.58-1.04-.35-1.59l1.06-2.52c.13-.29,.35-.54,.63-.69h0Z"/><path fill="#c0d8df" d="M16.01,6.51l2.07,6.06,2.55-2.9-4.62-3.15Z"/><path fill="#e2eef2" d="M22.84,5.74l-1.11,3.76-2.41,.12-3.3-3.11c.23-.14,.49-.22,.76-.23h5.58l.5-.54Z"/><path fill="#d7e5eb" d="M47.14,50l-9.35-18.52-5.71-2.02-5.89,2.02-9.35,18.52,15.15,3.39,15.13-3.39Z"/><path fill="#758797" d="M26.2,31.48l-13.52,11.88-.52-2.26c-.09-.4-.04-.82,.14-1.2l7.24-5.62,6.65-2.8Z"/><path fill="#9dacb9" d="M12.4,39.84l13.81-8.37-1.95-1.25-3.67,1.25-7.93,7.93c-.1,.13-.19,.28-.25,.43Z"/><path fill="#f0f4f6" d="M26.27,59l1.62-3.03-3.45-5.97h-7.58l-1.76,3.48c.13,.33,.29,.65,.49,.95l2.4,3.72c.34,.52,.92,.84,1.54,.84h6.74Z"/><path fill="#c0d8df" d="M26.2,31.48l-9.35,18.52,2.64,.59,6.71-19.11Z"/><path fill="#e2eef2" d="M16.86,50l-1.76,3.48c.13,.33,.29,.65,.49,.95l1.66,2.57,2.46-7h-2.84Z"/><path fill="#c0d8df" d="M37.8,31.48l9.35,18.52-2.64,.59-6.71-19.11Z"/><path fill="#e2eef2" d="M47.14,50l1.76,3.48c-.13,.33-.29,.65-.49,.95l-1.66,2.57-2.46-7h2.84Z"/><path fill="#8598ab" d="M37.73,59l-1.62-3.03,3.45-5.97h2.98v-2.58l-5.27-5.66h-10.54l-5.27,5.66v2.58h2.98l3.45,5.97-1.62,3.03h11.47Z"/><path fill="#f0f4f6" d="M48.9,53.48l-1.76-3.48h-7.58l-3.45,5.97,1.62,3.03h6.73c.62,0,1.21-.32,1.54-.84l2.4-3.72c.19-.3,.36-.62,.49-.95Z"/><path fill="#8598ab" d="M51.69,39.9l-7.24-5.62-6.65-2.8,9.35,18.52h0l1.76,3.48c.12-.28,.21-.57,.28-.87l2.65-11.53c.09-.4,.04-.82-.14-1.2Z"/><path fill="#758797" d="M37.8,31.48l13.52,11.88,.52-2.26c.09-.4,.04-.82-.14-1.2l-7.24-5.62-6.65-2.8Z"/><path fill="#9dacb9" d="M43.42,31.48l-3-1.64-2.62,1.64,13.9,8.42c-.09-.18-.2-.34-.34-.49l-7.93-7.93Z"/><path fill="#f9fbfc" d="M24.34,19.38l-6.65,5.11,2.89,6.99h22.84l.21-.21,2.87-6.78-6.65-5.12h-15.5Z"/><path fill="#9dacb9" d="M38.58 20.21l5.56 4.28.36-4.82-2.32-2.4-3.6 2.95zM20.05 24.49l5.56-4.28-3.6-2.95-2.32 2.4.36 4.82z"/><path fill="#d7e5eb" d="M47.99,6.51l-2.96,.84-.34,2.28-.11,2.2,3.05,1.04,1.71-1.55c.44-.4,.58-1.04,.35-1.59l-1.06-2.52c-.13-.29-.35-.54-.63-.69h0Z"/><path fill="#c0d8df" d="M47.99,6.51l-2.07,6.06-2.55-2.9,4.62-3.15Z"/><path fill="#e2eef2" d="M41.16,5.74l1.11,3.76,2.41,.12,3.3-3.11c-.23-.14-.49-.22-.76-.23h-5.58l-.5-.54Z"/><path fill="#f0f4f6" d="M22.84,5.74h0l-.49,.55-2.99,3.29-2.99,3.29h0l-.48,.52-.11,.12h0c-.43,.48-.67,1.1-.67,1.74v9.75c0,.64,.25,1.25,.71,1.71l4.77,4.77-.53-6.99h0l-.36-4.82,2.32-2.4,3.6,2.95h0l6.48,5.31,6.48-5.31h0l3.6-2.95,2.32,2.4-.36,4.82h0l-.51,6.78,4.56-4.56c.45-.45,.71-1.07,.71-1.71V15.25c0-.64-.24-1.26-.67-1.74l-.58-.64-2.94-3.24-3.53-3.89h0c-.43-.47-1.03-.74-1.67-.74h-14.98c-.63,0-1.24,.27-1.67,.74h0Z"/></svg>