<svg xmlns="http://www.w3.org/2000/svg" viewBox="0 0 64 64"><path fill="#f0f4f6" d="M32.01 5.05l.39 27.33 6.37 22.2c.36-.12.74-.19 1.12-.19h18.44c.52 0 .84-.55.6-1.01L32.55 5.34c-.12-.19-.33-.29-.55-.29zM31.99 5.05c-.22 0-.43.1-.55.29L5.08 53.38c-.25.45.08 1 .6 1.01H24.12c.38 0 .76.07 1.12.19l6.94-26.17-.19-23.36z"/><path fill="#d7e5eb" d="M32,5.05l-1.34,42.34,1.34,11.57c.33,.01,.65-.08,.92-.27l4.88-3.62c.29-.21,.61-.38,.95-.49L32.01,5.05h0Z"/><path fill="#e2eef2" d="M32,5.05h0l-6.75,49.53c.34,.11,.66,.28,.95,.49l4.88,3.62c.27,.19,.6,.28,.92,.27V5.05Z"/></svg>