<svg xmlns="http://www.w3.org/2000/svg" viewBox="0 0 64 64"><path fill="#fc76a8" d="M20.77,48.08l-3.48-.54-2.48,4.89c.16,.17,.38,.27,.63,.27h9.69c.35,0,.51-.43,.24-.66l-4.61-3.97Z"/><path fill="#fd91ba" d="M26.85,43.77l-1.88-5.63-9.77,3.69-.63,9.88c-.04,.28,.07,.54,.24,.72l5.96-4.35h0l6.08-4.31Z"/><path fill="#fc76a8" d="M11.07,38.85l-.2-3.7-3.5-2.47c-.21,.19-.37,.42-.46,.7l-1.87,5.84c-.14,.43,.24,.84,.68,.75l5.36-1.11Z"/><path fill="#fd91ba" d="M11.92,39.47l4.47-2.68,1.18-5.87h0l-9.36,1.35c-.32,.05-.61,.19-.84,.4l3.7,6.18h0l.85,.61Z"/><path fill="#fc76a8" d="M37.06,44.97l-2.87-7.22-9.38,3.32,2.03,2.71,10.21,1.2Z"/><path fill="#e2eef2" d="M15.19,41.83c6.2-.49,12.41-.99,18.61-1.49l-1.23-9.84-10.16-6.35c-.3,.1-.58,.29-.76,.57l-4.09,6.19-5.64,8.54-1.27,1.92c-.23,.35,.04,.81,.46,.77l4.09-.33Z"/><path fill="#fc76a8" d="M44.46,48.79l-2.92,.91,.41,3.85c.26,.16,.56,.25,.88,.25h10.15c.26,0,.34-.35,.12-.47l-8.63-4.54Z"/><path fill="#ef5b91" d="M44.46,48.79l-2.65,3.39,.15,1.37c.26,.16,.56,.25,.88,.25h1.31l.31-5.01Z"/><path fill="#fd91ba" d="M50.75 36.61l-8.8.75-4.89 7.61h0l4.29 7.95c.14.27.36.48.61.64l2.5-4.76h0l5.99-11.39c.13-.25.23-.52.31-.79h0zM50.25 10.2l-1.91 5.84 2.08 3.64h7.58c.56 0 1.01-.45 1.01-1v-3.2c0-.62-.35-1.18-.89-1.46l-6.97-3.58c-.28-.14-.58-.22-.89-.24h0z"/><path fill="#ffa6c5" d="M50.23,10.2c-.31-.01-.62,.05-.92,.17l-6.64,2.81c-.57,.24-.97,.77-1.04,1.39l-.55,3.65-1.28,8.5-.15,.99-4.3,5.79,1.7,11.47h0l13.69-8.36c.1-.36,.15-.73,.14-1.1l-.48-15.82-.17-9.48h-.01Z"/><path fill="#f0f4f6" d="M37.06,44.97l4.04-26.75-1.28,8.5c-.06,.59-.52,1.06-1.1,1.14l-15.5-3.74c-.27-.07-.54-.04-.79,.04l11.39,16.18h0l3.25,4.62h0Z"/><path fill="#d7e5eb" d="M22.41,24.16l8.15,16.44c1.08-.09,2.16-.17,3.24-.26l-11.39-16.18Z"/><path fill="#ef5b91" d="M30.56,40.6l1.69,3.8,4.81,.56-3.25-4.62-3.24,.26Z"/><path fill="#fc76a8" d="M50.25,10.21l2.84,9.47-2.67,.08-.17-9.56Z"/><path fill="#ef5b91" d="M7.37,32.68l1.38,6.65,2.32-.48-3.7-6.17Z"/><path fill="#fc76a8" d="M11.92,39.47l2.29-8.06,3.36-.49-5.64,8.54Z"/></svg>