<svg xmlns="http://www.w3.org/2000/svg" viewBox="0 0 64 64"><path fill="#fd91ba" d="M21.76,42.48l-1.28,9.25c-.05,.39,.38,.66,.7,.44l7.05-4.69h17.34l7.05,4.69c.33,.22,.76-.05,.7-.44l-1.28-9.25H21.76Z"/><path fill="#fc76a8" d="M5,31.36l5.25-1.17,.51-4.75-4.75,.08c-.56,0-1.01,.47-1.01,1.03v4.81Z"/><path fill="#fd91ba" d="M19.57,37.1l3.9-10.9-6.96-6.67-5.76,5.91-5.76,5.91v4.73c0,.56,.45,1.01,1.01,1.01h13.56Z"/><path fill="#ffd0e0" d="M16.52,19.53l3.05,7.52,7.91-4.12,2.85-7.7-15.87-3.02c-.43-.08-.78,.34-.61,.75l2.67,6.58Z"/><path fill="#fd91ba" d="M53.11,11.93c-.32,.1-.61,.26-.87,.49l-4.76,4.28,2.4,3.91,4.35,1.32-.62-5.09,.84-2.62-1.35-2.29Z"/><path fill="#ffa6c5" d="M54.25,21.93l-6.76-5.23-1.11-.86c-.52-.4-1.16-.62-1.81-.62h-14.23l-10.76,11.82v12.73c0,.64,.3,1.24,.8,1.63l1.39,1.08,6.47,5.01h17.34l6.47-5.01,1.39-1.08c.5-.39,.8-.99,.8-1.63V21.93Z"/><path fill="#fc76a8" d="M53.77,11.83c-.25,0-.5,.05-.74,.13l.6,4.88,5.22-3.85c.29-.21,.16-.67-.19-.7l-4.64-.45c-.08,0-.16-.01-.24-.01h0Z"/><path fill="#ef5b91" d="M53.03,11.96l.6,4.88,2.1-1.55-2.7-3.33Z"/><path fill="#fc76a8" d="M54.25 21.93l-4.87-6.92-1.88 1.69 6.76 5.23zM45.58 47.49l7.03-.97-.56-4.04-6.47 5.01zM28.24 47.49l-7.03-.97.56-4.04 6.47 5.01zM16.52 19.53l3.05 17.57v-10.05l-3.05-7.52z"/><path fill="#ef5b91" d="M5,31.36l3.39-5.88,2.37-.04-5.76,5.91Z"/></svg>