<svg xmlns="http://www.w3.org/2000/svg" viewBox="0 0 64 64"><path fill="#f8c228" d="M27.15,32.17l-13.78,8.63-2.48,3.05c-.33,.4-.2,1,.26,1.24l10.02,5.29c.49,.26,1.1,.07,1.36-.42l8.35-17.8-1.47-1.34-2.25,1.34Z"/><path fill="#e7a21c" d="M27.15,32.17l-13.78,8.63-2.48,3.05c-.33,.4-.2,1,.26,1.24l3.04,1.61,12.96-14.54Z"/><path fill="#fdda5c" d="M5.29 18.06l14.23 7.16 7.63.26.84-1.51-.84-1.51L15.43 13.82c-.25-.18-.54-.29-.83-.31-.29-.03-.6.03-.87.16l-7.83 3.86c-.25.12-.46.31-.61.54h0zM13.37 40.8l1.25.62 12.53-9.25.84-1.51-.84-1.51-9.06-.91-12.8 8.33c.15.22.36.42.61.54l7.48 3.69z"/><path fill="#fce87b" d="M5.29,36.57l21.87-7.42,.83-1.65-.83-2.02L5.29,18.06c-.18,.26-.29,.57-.29,.9v16.7c0,.33,.11,.64,.29,.9Z"/><path fill="#f8c228" d="M33.12,32.17l8.35,17.8c.26,.49,.87,.67,1.36,.42l10.02-5.29c.46-.24,.58-.84,.26-1.24l-2.48-3.05-13.78-8.63-2.8-1.66-.93,1.66Z"/><path fill="#e7a21c" d="M36.85,32.17l13.78,8.63,2.48,3.05c.33,.4,.2,1-.26,1.24l-3.04,1.61-12.96-14.54Z"/><path fill="#fdda5c" d="M58.71,36.57l-8.99-7.12-12.88-.3-1.57,1.18,1.57,1.84,12.53,9.25,1.25-.62,7.48-3.69c.25-.12,.46-.32,.61-.54Z"/><path fill="#f8c228" d="M36.85,29.15l17.66,9.73,3.59-1.77c.25-.12,.46-.32,.61-.54l-21.87-7.42Z"/><path fill="#fdda5c" d="M49.4,13.5c-.29,.03-.58,.13-.83,.32l-11.72,8.65-1.85,1.42,1.85,1.59,12.02-.35,9.85-7.07c-.15-.22-.36-.41-.61-.54l-7.83-3.86c-.28-.14-.58-.19-.87-.16h0Z"/><path fill="#fce87b" d="M58.71,18.06l-21.87,7.42-1.36,1.65,1.36,2.02,21.87,7.42c.18-.26,.29-.57,.29-.9V18.97c0-.33-.11-.64-.29-.9h0Z"/><path fill="#f0f4f6" d="M36.85,32.17v-9.7h-9.7v9.7h9.7Z"/><path fill="#f8c228" d="M27.15,29.15l-17.66,9.73-3.59-1.77c-.25-.12-.46-.32-.61-.54l21.87-7.42Z"/></svg>