<svg xmlns="http://www.w3.org/2000/svg" viewBox="0 0 64 64"><path fill="#fd91ba" d="M51.44,8.88l-4.93-3.53c-.25-.18-.55-.3-.86-.34-.15-.02-.31-.02-.46,0-.15,.02-.31,.05-.45,.11l-3.13,1.18c-.53,.2-.79,.78-.6,1.31l2.93,7.91,7.51-6.64Z"/><path fill="#fc76a8" d="M51.44,8.88l-10.14-.45,2.62,7.09,3.26-4.56,4.25-2.08Z"/><path fill="#8598ab" d="M16.32,29.1l-.33-6.42-8.48-5.14c-.2,.19-.35,.43-.4,.72l-2.09,11.15c-.09,.5,.32,.94,.82,.88l10.49-1.2Z"/><path fill="#9dacb9" d="M51.44,8.88l-.62,5.07,2.53,3.31,5.36-3.04c.39-.22,.4-.79,0-1.02l-7.27-4.32h0Z"/><path fill="#ffa6c5" d="M51.44,8.88l-4.57,.53c-.72,.08-1.31,.59-1.52,1.28l-1.42,4.83-4.13,12.41,4.2,6.83,12.26,1.24c.05-.31,.06-.63,0-.95l-2.93-17.8-1.9-8.38Z"/><path fill="#9dacb9" d="M29.59 25.31l-8.42-8.28c-.46-.45-1.09-.68-1.74-.64l-11.13.79c-.31.02-.58.15-.8.35l8.82 11.56 1.7 2.22 11.57-6.01zM43.52 53.3l-2.74 1.42-.03 4.05c.3.13.63.22.9.22h5.32c.41 0 .64-.47.39-.8l-3.84-4.9z"/><path fill="#8598ab" d="M45.3,49.77l-5.2-2.36-7.68,2.36,7.54,8.47c.19,.21,.48,.4,.79,.54l2.77-5.48,1.79-3.54Z"/><path fill="#9dacb9" d="M56.27,36.01l-10.58-3.4-12.72,.96-6.15,9.9c1.87,2.1,3.73,4.2,5.6,6.29h12.88l2.42-.02c.63,0,1.21-.35,1.51-.89l6.7-11.91c.17-.29,.28-.61,.33-.94h0Z"/><path fill="#8598ab" d="M26.82,43.47l18.87-10.87-5.88-4.67-2.51-1.99c-.51-.41-1.15-.63-1.81-.63h-12.99c-.63,0-1.21,.33-1.52,.88l-2.95,5.13h0l-2.95,5.13c-.29,.51-.18,1.16,.26,1.54l7.6,6.61c.46,.4,1.12,.46,1.64,.16l2.25-1.3Z"/><path fill="#758797" d="M45.69,32.61c-6.29,3.62-12.58,7.24-18.87,10.87l19.13-8.06,10.33,.6-10.59-3.4Z"/><path fill="#8598ab" d="M51.44,8.88l4.58,6.86-2.68,1.52-1.9-8.38Z"/><path fill="#758797" d="M45.3 49.77l-10.43 2.76-2.45-2.76h12.88zM40.75 58.78l4.38-3.43-1.61-2.05-2.77 5.48zM7.51 17.55l5.12 11.98 3.7-.42L7.51 17.55z"/></svg>