<svg xmlns="http://www.w3.org/2000/svg" viewBox="0 0 64 64"><path fill="#d7e5eb" d="M13.41,19.88l2.84-2.39-1.03-4.35c-.29,.04-.58,.13-.85,.27l-9.2,4.83c-.28,.15-.2,.56,.11,.6l8.13,1.03Z"/><path fill="#e2eef2" d="M15.77 13.11c-.19-.01-.37 0-.56.03l-1.81 6.74-3.19 11.91c-.08.29-.09.6-.06.89l11.92-1.8 2.88-5 .05-9.32c0-.6-.4-1.13-.98-1.28l-7.77-2.08c-.16-.04-.32-.07-.48-.08h0zM51.38 41.09l.84 2.96 4.8 1.45c.27-.17.48-.43.58-.75l1.37-4.37c.14-.43-.24-.85-.69-.76l-6.9 1.46z"/><path fill="#f0f4f6" d="M29.13,24.12c-.23,0-.45,.06-.67,.15l-3.51,1.61-14.8,6.8c.04,.34,.14,.67,.32,.97l6.98,11.84,12.33,.24h26.5c.27,0,.52-.08,.74-.22l-5.63-4.42L30.19,24.48c-.31-.24-.68-.36-1.06-.36h0Z"/><path fill="#f9fbfc" d="M24.96,25.88l-7.51,19.61-1.7,4.45c-.14,.37,.22,.74,.59,.61l13.43-4.82-4.82-19.85Z"/><path fill="#e2eef2" d="M24.96,25.88l-9.65,15.96,2.15,3.65,7.51-19.61Z"/><path fill="#c0d8df" d="M15.22 13.14l-4.53 6.39 2.72.35 1.81-6.74zM57.01 45.51l-2.18-5.15-3.45.73 5.63 4.42z"/></svg>