<svg xmlns="http://www.w3.org/2000/svg" viewBox="0 0 64 64"><path fill="#f8c228" d="M32,20.6l-2.22,6.81,1.87,7.52,16.14-1.98c-.64,0-1.65-.89-1.65-.89l-14.14-11.46Z"/><path fill="#fdda5c" d="M16.21,32.95l13.39,3.59,2.41-3.59-1.2-4.16-7.55-4.03-5.39,7.3s-1.01,.89-1.66,.89h0Z"/><path fill="#fce87b" d="M30.35 15.55c-.25.08-.48.24-.64.45l-6.46 8.75 8.75 8.19V16.76c0-.86-.83-1.46-1.65-1.21h0zM5.57 32.95c-.44 0-.71.55-.48.97l7.5 13.62c.19.34.46.6.78.77H50.64c.31-.17.59-.43.78-.77l7.5-13.62c.23-.42-.04-.97-.48-.97H5.57z"/><path fill="#fdda5c" d="M50.64,48.31l-18.64-15.36-18.64,15.36c.24,.13,.5,.2,.77,.2H49.86c.27,0,.54-.07,.78-.2h0Z"/></svg>