<svg xmlns="http://www.w3.org/2000/svg" viewBox="0 0 64 64"><path fill="#fdda5c" d="M38.89,7.69h-13.79l.8,7.11,6.68,3.06,6.31-10.18Z"/><path fill="#fce87b" d="M13,32.95l3.35-8.71-3.35-9.12-7.82,11.9c-.34,.52-.18,1.21,.36,1.53l7.47,4.4Z"/><path fill="#fdda5c" d="M13,15.11l-3.64,15.69,3.64,2.15,2.74-7.13-2.74-10.7Z"/><path fill="#fce87b" d="M51,15.11l-4.75,10.5,4.75,7.33,7.47-4.4c.53-.31,.7-1.01,.36-1.53l-7.82-11.9Z"/><path fill="#fdda5c" d="M51,15.11l3.64,15.69-3.64,2.15-2.74-7.13,2.74-10.7Z"/><path fill="#62d9fa" d="M14.14,13.6c-.63,0-1.14,.51-1.14,1.14V55.42c0,.63,.51,1.14,1.14,1.14H49.86c.63,0,1.14-.51,1.14-1.14V14.74c0-.63-.51-1.14-1.14-1.14h-6.16l-11.7,.43-11.7-.43h-6.16Z"/><path fill="#fce87b" d="M32 14.03l2.9 5.91c.22.45.81.57 1.2.24l7.6-6.59-2.85-4.8-.54-.9c-.3-.5-.99-.61-1.42-.21l-6.89 6.34zM24.42 7.45c-.29.02-.57.18-.73.45l-.54.9-2.85 4.8 7.6 6.59c.38.33.97.21 1.2-.24l2.9-5.91-6.89-6.34c-.16-.15-.36-.23-.56-.24-.04 0-.08 0-.12 0z"/></svg>