<svg xmlns="http://www.w3.org/2000/svg" viewBox="0 0 64 64"><path fill="#fcbfad" d="M24.82,12.15l-5.97-2.16-5.87,2.16h-4.73c-.56,0-1.01,.45-1.01,1.01v6.75c0,.61,.38,1.15,.95,1.35l8.09,2.92,6.76-4.23,1.85-7.7s-.05-.06-.08-.1h0Z"/><path fill="#fbac90" d="M20.63,12.15l-4.34,12.03,7.69-8.08,.93-3.85s-.05-.06-.08-.1h-4.19Z"/><path fill="#fcbfad" d="M39.61,44.09l-.77,4.59,4.01,2.48,13.35-13.64c.44-.45,.63-1.09,.51-1.71l-2.88-14.96c-.06-.25-.19-.48-.39-.65l-5.83,3.56-.99,8.22-7.02,12.11Z"/><path fill="#feccba" d="M24.9,12.25l-8.61,11.93-1.28,12.4-.38,18.3,16.95,4.13h2.6c.65,0,1.26-.26,1.71-.72l6.97-7.12-3.24-7.07-3.24-7.07L25.39,13.07c-.13-.29-.3-.56-.49-.82Z"/><path fill="#fbac90" d="M46.63,31.97l6.82-11.78c-.22-.21-.51-.33-.81-.34h-10.04c-.48,0-.81,.49-.62,.93l4.65,11.18Z"/><path fill="#fee8e0" d="M36.37,37.01l-20.08-12.84-8.25,11.42c-.25,.35,0,.83,.42,.84l6.54,.13,21.37,.44Z"/><path fill="#fbac90" d="M16.37,5c-.31-.02-.61,.16-.72,.46l-2.67,6.69h11.83c-.18-.24-.39-.46-.62-.65l-7.41-6.32c-.12-.1-.26-.16-.42-.17h0Z"/><path fill="#fee8e0" d="M22.65,50.73c-.41,0-.83,.11-1.21,.32l-6.81,3.81-6.49,3.64c-.24,.13-.14,.49,.13,.49H31.58l-7.05-7.47c-.5-.53-1.18-.8-1.88-.8Z"/><path fill="#fcbfad" d="M36.37,37.01l-21.45,3.48,.08-3.92,21.37,.44Z"/><path fill="#fbac90" d="M39.61,44.09l5.19,5.08-1.95,1.99-3.24-7.07Z"/><path fill="#ed9678" d="M53.45 20.2l-8.16 8.55 1.34 3.22 6.82-11.78zM24.82 12.15l-10.81-2.58-1.03 2.58h11.83z"/></svg>