<svg xmlns="http://www.w3.org/2000/svg" viewBox="0 0 64 64"><path fill="#0acffb" d="M15.38,57.49l10.23-8.11-.33-5.52-.6-4.34-5.4-.78-4.3,17.85c-.05,.35,.1,.7,.39,.9h0Z"/><path fill="#6df4c0" d="M5.11,25.88l13.04,7.2,2.98-1.99,3.36-3-.35-4.28-18.3,1.43c-.35,.06-.64,.31-.73,.65Z"/><path fill="#9af6d3" d="M19.29,38.75l6,5.11,5.88-3.16,.83-6.08-4.88-4.62-5.98,1.09L5.11,25.88c-.12,.33-.04,.7,.21,.95l13.97,11.91Z"/><path fill="#fdda5c" d="M48.64,57.53l-2.7-9.24-7.23-4.43-3.87-.82-2.85,4.94,15.65,9.61c.32,.18,.71,.16,1-.06h0Z"/><path fill="#fce87b" d="M44.71,38.75l.12-5.4-1.96-2.26-5.39-1.48-5.47,5.01,1.28,6.31,5.43,2.94,9.93,13.67c.3-.21,.44-.58,.37-.93l-4.3-17.85Z"/><path fill="#d6b1ed" d="M58.93,25.87l-10.23,.78-5.84,4.44,1.85,7.66,13.97-11.91c.27-.24,.37-.62,.25-.97h0Z"/><path fill="#e5c9f3" d="M39.85,23.81c-3.16-3.56-5.62-2.78-7.85-.61l-2.78,5.56,2.78,5.86,10.86-3.53,16.07-5.22c-.11-.35-.41-.6-.77-.63l-18.3-1.43Z"/><path fill="#fd91ba" d="M32,6.35l-2.58,12.54,2.58,4.32,7.85,.61-7.01-16.97c-.16-.31-.49-.51-.84-.49h0Z"/><path fill="#ffa6c5" d="M31.65,6.35c-.22,.09-.4,.27-.49,.49l-7.01,16.97-3.01,7.28,10.86,3.53V6.35c-.12-.02-.23-.02-.35,0h0Z"/><path fill="#62d9fa" d="M32,47.98l6.71-4.12-6.71-9.24-6.71,9.24-9.9,13.63c.28,.22,.66,.25,.97,.1l15.65-9.61Z"/><path fill="#ca96e5" d="M58.93,25.87l-15.14,9.05-.92-3.83,16.07-5.22Z"/><path fill="#f8c228" d="M48.64,57.53l-13.29-11.61,3.36-2.06,9.93,13.67Z"/><path fill="#00bff8" d="M15.36,57.53l6.93-16.22,3,2.55-9.93,13.67Z"/><path fill="#3aedbc" d="M5.07,25.87l17.57,1.58-1.5,3.64L5.07,25.87Z"/><path fill="#fc76a8" d="M32,6.3l3.93,17.2-3.93-.3V6.3Z"/></svg>