<svg xmlns="http://www.w3.org/2000/svg" viewBox="0 0 64 64"><path fill="#d7e5eb" d="M28.21,38.54l3.61,20.31c.03,.2,.32,.2,.35,0l3.61-20.31h-7.58Z"/><path fill="#c0d8df" d="M28.21,38.54l.45,2.5,2.37,.61c.64,.16,1.3,.16,1.94,0l2.38-.61,.45-2.5h-7.58Z"/><path fill="#d7e5eb" d="M45.35,36.1l-4.17-1.44-2.3,3.09,2.39,4.88c.18,.37,.7,.37,.88,0l3.2-6.53Zm-20.22,1.65l-2.75-3.11-3.72,1.46,3.2,6.53c.18,.37,.7,.37,.88,0l2.39-4.88Z"/><path fill="#e2eef2" d="M32,5c-.29,0-.57,.09-.81,.27L14.92,17.65c-.51,.39-.81,1-.81,1.64v14.63c0,.6,.41,1.13,.99,1.27l3.56,.91,6.47,1.65h13.75l6.47-1.65,3.56-.91c.58-.15,.99-.67,.99-1.27v-14.63c0-.64-.3-1.25-.81-1.64L32.81,5.27c-.24-.18-.53-.27-.81-.27h0Z"/><path fill="#f0f4f6" d="M38.88,37.75l-6.88-14.03-6.87,14.03,3.09,.79,2.82,.72c.64,.16,1.3,.16,1.94,0l2.82-.72,3.09-.79Z"/><path fill="#c0d8df" d="M38.88 37.75l5.44.46 1.04-2.11-6.47 1.65zM25.12 37.75l-5.44.46-1.04-2.11 6.47 1.65z"/></svg>