<svg xmlns="http://www.w3.org/2000/svg" viewBox="0 0 64 64"><path fill="#fdda5c" d="M43.93,5.96c-.11-.6-.79-.9-1.31-.58l-10.62,6.56-9.97-6.79c-.16-.11-.34-.16-.53-.15-.39,.02-.72,.29-.8,.67l-2.87,12.15-11.86,2.25c-.6,.11-.9,.79-.58,1.31l6.56,10.62-6.79,9.97c-.34,.5-.07,1.2,.52,1.34l12.15,2.87,2.25,11.86c.11,.6,.79,.9,1.31,.58l10.62-6.56,9.97,6.79c.51,.34,1.2,.07,1.34-.52l2.87-12.15,11.86-2.25c.6-.11,.9-.79,.58-1.31l-6.56-10.62,6.79-9.97c.34-.5,.07-1.2-.52-1.34l-12.15-2.87-2.25-11.86Z"/><path fill="#fce87b" d="M46.18,17.82l-14.18-5.87-14.18,5.87-5.87,14.18,5.87,14.18,14.18,5.87,14.18-5.87,5.87-14.18-5.87-14.18Z"/></svg>