<svg xmlns="http://www.w3.org/2000/svg" viewBox="0 0 64 64"><path fill="#f0f4f6" d="M58.16,5.84l-19.48,15.61-11.94,15.8,1.7,1.89,4.28,2.28L58.24,15.91c.52-.52,.79-1.24,.75-1.97l-.43-7.28c-.03-.31-.18-.6-.4-.82Z"/><path fill="#e2eef2" d="M49.79,5.01c-.64,.03-1.24,.3-1.7,.75L22.57,31.28l2,3.81,2.17,2.17L58.16,5.84c-.21-.23-.5-.37-.82-.4l-7.28-.43c-.09-.01-.18-.01-.27,0h0Z"/><path fill="#00bff8" d="M14.59,23.3l1.22,3.74,3.88,1.36,5.03-5.03c.29-.29,.08-.79-.34-.78l-8.99,.32c-.31,.03-.59,.17-.8,.39h0Z"/><path fill="#62d9fa" d="M11.26,58.96l2.07-4.5-1.59-2.19-1.94-1.84-4.76,2.31c-.02,.31,.09,.62,.3,.85l2.53,2.53,2.53,2.54c.23,.21,.54,.32,.85,.3Z"/><path fill="#00bff8" d="M5.04,52.74l6.69-.47,4.25-1.22,1.7-4.72,.75-2.81-4.1-.54-8.99,8.99c-.19,.21-.3,.49-.3,.78h0Z"/><path fill="#0acffb" d="M21.04,49.67l-.27-2.62-3.08-.73-5.95,5.95-.47,6.69c.29,0,.57-.11,.78-.3l8.99-8.99Z"/><path fill="#62d9fa" d="M27.31,50.1l2.52-5.83-2.18-7.92-7.02-1.34-6.73,1.68-2.11,2.11c-.45,.45-.45,1.18,0,1.63l2.54,2.53,3.35,3.35,3.35,3.35,2.53,2.54c.45,.45,1.18,.45,1.63,0l2.11-2.11Z"/><path fill="#0acffb" d="M13.9,36.69l13.75-.34-5.08-5.08-2.88-2.88-5.1-5.1c-.22,.21-.36,.5-.38,.8l-.31,12.59Z"/><path fill="#00bff8" d="M35.61,44.31l.65,3.24,4.45,1.86c.23-.21,.37-.5,.39-.8l.32-8.99c.02-.41-.49-.63-.78-.34l-5.03,5.03Z"/><path fill="#0acffb" d="M32.72,41.43l-5.08-5.08-.34,13.75,12.59-.31c.31-.02,.59-.16,.8-.38l-5.1-5.1-2.88-2.88Z"/><path fill="#00aee2" d="M40.7 49.41l-2.58-7.61-2.52 2.52 5.1 5.1zM14.59 23.3l7.61 2.58-2.52 2.52-5.1-5.1z"/></svg>