<svg xmlns="http://www.w3.org/2000/svg" viewBox="0 0 64 64"><path fill="#3aedbc" d="M43,37.41s-.09,.02-.13,.04l-8.36,3.79-1.81,8.46,1.81,8.88c.18-.16,.32-.35,.42-.57l8.5-20.02c.13-.31-.13-.62-.43-.58Z"/><path fill="#6df4c0" d="M34.52,28.9h-5.04v14.7l-1.28,15.07c.26,.2,.57,.32,.9,.33h4.34c.4,0,.78-.16,1.08-.43v-11.42c0-6.09,0-12.17,0-18.26h0Z"/><path fill="#9af6d3" d="M28.2,58.67l6.32-11.52-5.03-3.56-8.46-5.98c-.27-.19-.63,.08-.52,.39l7.15,19.97c.11,.28,.3,.51,.54,.68Z"/><path fill="#ffa6c5" d="M35.08,8.18l-2.22-1.67c-.51-.38-1.21-.38-1.72,0l-2.22,1.67,3.08,22.07,3.08-22.07Z"/><path fill="#fce87b" d="M27.83 5c-.11.01-.22.05-.31.12l-7.24 4.99c-.54.37-.81 1.03-.7 1.67l2.16 11.98c.12.67.54 1.25 1.14 1.57l6.6 3.56h0l2.52 1.36h0l-3.45-24.68c-.05-.35-.37-.6-.72-.57zM36.17 5c-.35-.03-.67.22-.72.57l-.08.58-.28 2.03-.22 1.56-2.86 20.51 5.28-2.85 3.84-2.07c.6-.32 1.02-.9 1.14-1.57l2.16-11.98c.12-.65-.16-1.3-.7-1.67l-7.24-4.99c-.09-.06-.2-.1-.31-.12z"/><path fill="#ffa6c5" d="M35.08,8.18l-2.22-1.67c-.51-.38-1.21-.38-1.72,0l-2.22,1.67,3.08,22.07,3.08-22.07Z"/></svg>