<svg xmlns="http://www.w3.org/2000/svg" viewBox="0 0 64 64"><path fill="#fce87b" d="M35.93,25.36l6.81-1.01,1.15-10.68-4.98,1.94c-.71,.28-1.23,.88-1.4,1.62l-1.61,7.09c-.08,.35-.06,.7,.03,1.03h0Z"/><path fill="#d6b1ed" d="M40.02,29.81l-31.82,4.75c-.32,.05-.61,.19-.84,.4l.48,4.44,3.22,1.73,4.71,3.4,11.06,1.52,10.21,1.2,4.54-10.56-1.58-6.88Z"/><path fill="#e5c9f3" d="M17.24,33.25l-1.46,11.29h0l-1.22,10.55c-.04,.28,.06,.54,.24,.73l4.66-1.3,1.13-3.44,6.25-5.01h0l-9.61-12.8Z"/><path fill="#d6b1ed" d="M50.75,38.89l-10.11,1.71-3.58,6.65,4.29,7.95c.14,.27,.36,.49,.61,.64l3.49-1.99-.99-2.77,5.99-11.4c.13-.25,.23-.52,.3-.79h0Z"/><path fill="#ffa6c5" d="M26.85 46.06l10.21 1.2-10.21-1.2zM15.78 44.54l1.46-11.29-1.46 11.29z"/><path fill="#fdda5c" d="M41.24,22.65l-5.31,2.71c.1,.37,.29,.72,.57,1l3.52,3.45,2.57-4.13-1.34-3.03Z"/><path fill="#f0f4f6" d="M57.54,7.92c-.17-.02-.35,.02-.52,.12l-5.89,3.41,2.63,2.64,2.77,.13,1.74-5.17c.19-.56-.22-1.08-.73-1.13h0Z"/><path fill="#d6b1ed" d="M56.54,14.22l-5.4-2.77c-.28-.14-.58-.22-.89-.23h0l-1.94,5.81,2.11,3.67h7.58c.56,0,1-.45,1-1v-3.2c0-.62-.34-1.18-.89-1.46l-1.57-.81Z"/><path fill="#ca96e5" d="M17.24 33.25l-3.81 9.59 2.36 1.7 1.46-11.29zM37.06 47.25l-.37-16.94 3.33-.5-2.97 17.44zM50.24 11.21l-.58 8.17.75 1.31h3.24l-3.41-9.48z"/><path fill="#e5c9f3" d="M50.24,11.21c-.31-.01-.64,.04-.93,.17l-5.42,2.29-.27,.11c-.51,.2-1.01,.8-1.1,1.35-1.84,10.8-3.81,22.39-5.46,32.12l13.69-8.36c.1-.36,.15-.73,.14-1.1-.32-8.86-.49-17.71-.65-26.57h0Z"/><path fill="#ca96e5" d="M44.46 51.08l-2.5 4.76c.26.16.56.25.87.25h10.15c.26 0 .34-.35.12-.47l-8.64-4.54zM11.07 41.14l-3.71-6.17c-.21.19-.37.42-.46.7l-1.87 5.84c-.14.43.24.84.68.75l5.36-1.12z"/><path fill="#d6b1ed" d="M20.58,51.08l-5.78,4.74c.16,.17,.38,.27,.63,.27h9.7c.35,0,.51-.43,.24-.66l-4.8-4.35Z"/><path fill="#ca96e5" d="M14.83,55.8l8.15-2.54-2.4-2.18-5.75,4.72Z"/><path fill="#a26fd1" d="M44.46,51.08l-2.5,4.76,4.05-3.95-1.55-.81ZM7.36,34.96l1.38,6.66,2.32-.48-3.71-6.17Z"/></svg>