<svg xmlns="http://www.w3.org/2000/svg" viewBox="0 0 64 64"><path fill="#8598ab" d="M48.21,13.59c-.11,.01-.21,.06-.3,.11l.12,5.76,2.15,2.71,8.53-2.61c.35-.11,.4-.59,.07-.76l-10.09-5.13c-.14-.07-.31-.1-.47-.08h0Z"/><path fill="#758797" d="M47.91,13.7l1.01,6.87,1.26,1.59,3.26-1-5.53-7.47Z"/><path fill="#9dacb9" d="M50.17,22.16l-2.27-8.47c-.18,.11-.32,.28-.38,.49l-3.47,14.08-5.7,7.64,2.05,7.17c.24-.12,.46-.27,.66-.46l10.78-10.78c.45-.45,.62-1.09,.45-1.7l-2.14-7.97Z"/><path fill="#8598ab" d="M32.22,43.34h7.12c.38,0,.75-.1,1.08-.26l3.64-14.81L10.41,19.47c-.56-.15-1.15,.14-1.38,.68l-3.88,9.23c-.14,.32-.17,.67-.12,1.01l27.19,12.96Z"/><path fill="#758797" d="M41.49,27.6l-1.06,15.48,3.64-14.81-2.58-.67Z"/><path fill="#e2eef2" d="M24.94,43.34l.49-3.72-2.88-4.98L5.03,30.39c.04,.27,.14,.53,.31,.77l7.93,11.35c.36,.52,.96,.83,1.6,.83h10.08Z"/><path fill="#d7e5eb" d="M22.56,34.65l-.32,8.69h2.7l.48-3.64-2.82-4.97-.05-.08Z"/><path fill="#f0f4f6" d="M32.22,43.34l-9.66-8.7h0l2.39,8.7,1.34,4.9c.24,.89,1.41,1.11,1.96,.37l3.97-5.27Z"/></svg>