<svg xmlns="http://www.w3.org/2000/svg" viewBox="0 0 64 64"><path fill="#9dacb9" d="M34.55,42.29l-1.77-5.61-3.73,.11v21.21c0,.55,.45,1,1,1h3.49c.55,0,1-.45,1-1v-15.71Z"/><path fill="#f0f4f6" d="M27.44,18.97v9.13h9.12v-9.13h-9.12Z"/><path fill="#fd91ba" d="M29.38,5.05c-.29-.07-.6-.07-.89,.02l-10.48,3.22c-.43,.13-.57,.68-.25,1l6.14,6.14,.68,4.34,4.48,.81h3.16l1.07-6.54-3.78-8.93s-.08-.05-.13-.07h0Z"/><path fill="#ffa6c5" d="M29.51,5.12l2.71,15.47h2.73l4.59-1.5,.57-3.65L30.15,5.49c-.19-.17-.41-.29-.65-.37h0Z"/><path fill="#0acffb" d="M40.1,15.43l-5.16,5.15v3.16l7.95,.3,7.55-3.01c.11-.33,.11-.68,.01-1.01l-3.22-10.48c-.13-.43-.68-.57-1-.25l-6.14,6.14Z"/><path fill="#62d9fa" d="M50.45,21.03l-15.5,2.71v2.73l1.62,3.45,3.54,1.71,9.95-9.95c.18-.18,.32-.41,.4-.65Z"/><path fill="#fdda5c" d="M40.1,31.63l-5.16-5.16h-3.16l-.94,6.89,3.71,8.92,11.44-3.51c.43-.13,.57-.68,.25-1l-6.14-6.14Z"/><path fill="#fce87b" d="M34.55,42.29l-2.77-15.81h-2.73l-4.46,.44-.69,4.71,5.16,5.16,5.5,5.5Z"/><path fill="#6df4c0" d="M23.9,31.63l5.16-5.16v-3.16l-6.12-1.11-9.35,3.82c-.12,.33-.14,.68-.05,1.02l3.22,10.48c.13,.43,.68,.57,1,.25l6.14-6.14Z"/><path fill="#9af6d3" d="M13.59,26.03l15.47-2.71v-2.73l-5.16-5.16-9.95,9.95c-.17,.19-.3,.41-.37,.65Z"/><path fill="#00bff8" d="M50.45,21.03l-15.5-.45v3.16l15.5-2.71Z"/><path fill="#3aedbc" d="M13.59,26.03l15.5,.45v-3.16l-15.5,2.71Z"/><path fill="#fc76a8" d="M29.51,5.12l-.45,15.5h3.16l-2.71-15.5Z"/><path fill="#f8c228" d="M34.55,42.29l.39-15.81h-3.16l2.77,15.81Z"/></svg>