<?xml version="1.0" encoding="UTF-8"?>
<svg id="Layer_1" xmlns="http://www.w3.org/2000/svg" version="1.1" viewBox="0 0 48 46">
  <!-- Generator: Adobe Illustrator 30.5.1, SVG Export Plug-In . SVG Version: 2.1.4 Build 3)  -->
  <defs>
    <style>
      .st0 {
        fill: #d6fd70;
      }

      .st1 {
        fill: #0a0c0e;
      }
    </style>
  </defs>
  <rect class="st0" width="48" height="46"/>
  <path class="st1" d="M35,21l-6.5.5s-.2,0-.2-.2c0-.2,0-.3,0-.3l4.9-4.2c.4-.3.4-1,0-1.3-.5-.5-1.1-1.1-1.6-1.6-.4-.4-1-.3-1.3,0l-4.2,4.9h0c-.1,0-.2,0-.3,0-.1,0-.2-.1-.2-.2l.5-6.5c0-.5-.4-1-.9-1h-2.2c-.5,0-.9.4-.9,1l.5,6.5h0s0,.2-.2.2c-.2,0-.3,0-.3,0h0l-4.2-4.9c-.3-.4-1-.4-1.3,0l-1.6,1.6c-.4.4-.3,1,0,1.3l4.9,4.3s0,.2,0,.3c0,.2-.2.2-.2.2l-6.5-.5c-.5,0-1,.4-1,.9v2.2c0,.5.4.9,1,.9l2.3-.2c1.5-.1,2.9-.8,3.8-2h0c.1-.2.3-.4.4-.5,0,0,0,0,.2-.2.7-.6,1.6-1,1.6-1.1,0,0,0,0,0,0,.6-.3,1.2-.4,1.6-.5.4,0,1.3-.2,2.3,0,.2,0,.7.2,1.2.4.1,0,.9.4,1.6,1,0,0,.4.3.8.8,0,0,0,0,0,0,.9,1.1,2.2,1.9,3.7,2l2.4.2c.5,0,1-.4,1-.9v-2.2c0-.5-.4-.9-1-.9Z"/>
  <path class="st1" d="M33.2,29.4l-5.3-4.6c-1-.9-1.7-1.5-1.9-1.6-.2-.1-.4-.2-.4-.2,0,0,0,0,0,0-1-.4-2-.4-3,0,0,0,0,0,0,0,0,0-.2,0-.4.2-.2,0-.8.6-1.6,1.4h0l-.3.3-5.3,4.6c-.4.3-.4,1,0,1.3.5.5,1.1,1.1,1.6,1.6.4.4.9.3,1.3,0l1.4-1.6,2.9-3.4.4-.4.6-.6h0c.3-.3.7-.5,1.1-.5s.8.2,1.1.4h0c0,0,.6.7.6.7l.4.4,4.2,4.9c.3.4.9.4,1.3,0l1.6-1.6c.4-.4.3-1,0-1.3Z"/>
  <path class="st1" d="M24,30.4c.9,0,1.6-.7,1.6-1.6v-.2c-.1-.8-.8-1.4-1.6-1.4s-1.5.6-1.6,1.4v.2c0,.9.7,1.6,1.6,1.6Z"/>
  <path class="st1" d="M24,31.1c-1,0-1.8.7-1.9,1.7v.3c0,1.1.9,2,1.9,2s1.9-.9,1.9-2v-.3c-.2-.9-1-1.7-1.9-1.7Z"/>
</svg>