<svg width="94" height="20" viewBox="0 0 94 20" fill="none" xmlns="http://www.w3.org/2000/svg">
<path d="M7.68716 20C6.03015 20 4.62938 19.7344 3.48485 19.2031C2.3574 18.6718 1.49473 17.9434 0.896836 17.018C0.298945 16.0754 0 15.0129 0 13.8303H3.56172C3.56172 14.3273 3.69838 14.8158 3.9717 15.2956C4.24502 15.7584 4.68063 16.1354 5.27852 16.4267C5.89349 16.7181 6.69637 16.8638 7.68716 16.8638C8.57546 16.8638 9.31855 16.7352 9.91644 16.4782C10.5143 16.2211 10.9585 15.8869 11.2489 15.4756C11.5393 15.0471 11.6845 14.5673 11.6845 14.036C11.6845 13.3676 11.4026 12.8363 10.8389 12.4422C10.2752 12.0308 9.40396 11.7738 8.22527 11.671L6.58534 11.5424C4.79167 11.3882 3.35673 10.8312 2.28053 9.87147C1.2214 8.8946 0.691845 7.60926 0.691845 6.01542C0.691845 4.81577 0.973707 3.78749 1.53743 2.93059C2.10116 2.05656 2.88696 1.38818 3.89483 0.92545C4.91979 0.445587 6.11557 0.205656 7.48217 0.205656C8.90003 0.205656 10.1214 0.454156 11.1464 0.951157C12.1713 1.44816 12.9657 2.15081 13.5294 3.05913C14.0931 3.9503 14.375 5.00429 14.375 6.22108H10.8133C10.8133 5.70694 10.6852 5.23565 10.4289 4.8072C10.1898 4.36161 9.82249 4.01028 9.32709 3.75321C8.84878 3.47901 8.23381 3.3419 7.48217 3.3419C6.7647 3.3419 6.16681 3.46187 5.6885 3.7018C5.21019 3.94173 4.85145 4.26735 4.6123 4.67866C4.37314 5.08998 4.25356 5.53556 4.25356 6.01542C4.25356 6.59812 4.4671 7.11225 4.89416 7.55784C5.32123 7.98629 5.99599 8.23479 6.91845 8.30334L8.55838 8.45758C9.89082 8.56041 11.061 8.84319 12.0688 9.30591C13.0767 9.76864 13.854 10.3942 14.4006 11.1825C14.9643 11.9709 15.2462 12.922 15.2462 14.036C15.2462 15.2185 14.9387 16.2639 14.3238 17.1722C13.7088 18.0634 12.829 18.7575 11.6845 19.2545C10.557 19.7515 9.2246 20 7.68716 20Z" fill="white"/>
<path d="M26.7213 19.5116V15.3728H26.132V10.7712C26.132 9.96573 25.9355 9.3659 25.5426 8.97172C25.1497 8.57755 24.5433 8.38046 23.7233 8.38046C23.2962 8.38046 22.7838 8.38903 22.1859 8.40617C21.588 8.42331 20.9816 8.44902 20.3666 8.48329C19.7687 8.50043 19.2306 8.52614 18.7523 8.56041V5.52699C19.1452 5.49272 19.5893 5.45844 20.0847 5.42417C20.5801 5.38989 21.084 5.37275 21.5965 5.37275C22.1261 5.35561 22.6215 5.34705 23.0827 5.34705C24.5176 5.34705 25.7049 5.53556 26.6444 5.9126C27.6011 6.28963 28.3185 6.88089 28.7968 7.68638C29.2922 8.49186 29.5399 9.54585 29.5399 10.8483V19.5116H26.7213ZM22.2371 19.8715C21.2293 19.8715 20.341 19.6915 19.5722 19.3316C18.8206 18.9717 18.2313 18.4576 17.8042 17.7892C17.3942 17.1208 17.1892 16.3153 17.1892 15.3728C17.1892 14.3445 17.4369 13.5047 17.9323 12.8535C18.4448 12.2022 19.1537 11.7138 20.0591 11.3882C20.9816 11.0626 22.0578 10.8997 23.2877 10.8997H26.5163V13.0334H23.2365C22.4165 13.0334 21.7844 13.2391 21.3403 13.6504C20.9132 14.0446 20.6997 14.5587 20.6997 15.1928C20.6997 15.8269 20.9132 16.341 21.3403 16.7352C21.7844 17.1294 22.4165 17.3265 23.2365 17.3265C23.7319 17.3265 24.1845 17.2408 24.5945 17.0694C25.0216 16.8809 25.3718 16.5724 25.6451 16.144C25.9355 15.6984 26.0978 15.0985 26.132 14.3445L27.0032 15.347C26.9178 16.3239 26.6786 17.1465 26.2857 17.8149C25.9099 18.4833 25.3803 18.9974 24.697 19.3573C24.0308 19.7001 23.2108 19.8715 22.2371 19.8715Z" fill="white"/>
<path d="M33.3551 19.5116V0.745502H36.9168V11.6967H36.3018C36.3018 10.2913 36.4812 9.10026 36.8399 8.12339C37.1987 7.14653 37.7282 6.40103 38.4286 5.88689C39.1461 5.37275 40.0515 5.11568 41.1447 5.11568H41.2985C42.8872 5.11568 44.0915 5.6641 44.9115 6.76093C45.7314 7.85776 46.1414 9.45159 46.1414 11.5424V19.5116H42.5797V11.2082C42.5797 10.3171 42.3234 9.6144 41.811 9.10026C41.3156 8.58612 40.6579 8.32905 39.8379 8.32905C38.9667 8.32905 38.2578 8.62039 37.7111 9.20309C37.1816 9.76864 36.9168 10.5141 36.9168 11.4396V19.5116H33.3551Z" fill="white"/>
<path d="M50.6368 19.5116V5.5527H54.1985V19.5116H50.6368ZM48.6894 8.22622V5.5527H54.1985V8.22622H48.6894ZM51.9436 3.88175C51.2432 3.88175 50.7222 3.7018 50.3806 3.3419C50.056 2.96487 49.8937 2.50214 49.8937 1.95373C49.8937 1.37104 50.056 0.899744 50.3806 0.539846C50.7222 0.179949 51.2432 0 51.9436 0C52.644 0 53.1565 0.179949 53.481 0.539846C53.8056 0.899744 53.9679 1.37104 53.9679 1.95373C53.9679 2.50214 53.8056 2.96487 53.481 3.3419C53.1565 3.7018 52.644 3.88175 51.9436 3.88175Z" fill="white"/>
<path d="M58.5852 19.5116V0.745502H63.5562L68.2454 11.9537H68.7066L73.3702 0.745502H78.4181V19.5116H74.8051V3.49614L75.2663 3.54756L70.2184 15.6812H66.503L61.4294 3.54756L61.9163 3.49614V19.5116H58.5852Z" fill="white"/>
<path d="M83.033 19.5116V0.745502H86.6716V19.5116H83.033ZM86.1591 11.6967V8.61183L93.6413 8.58612V11.671L86.1591 11.6967ZM86.1591 3.83034V0.745502H94V3.83034H86.1591Z" fill="white"/>
</svg>
