<svg width="129" height="36" viewBox="0 0 129 36" fill="none" xmlns="http://www.w3.org/2000/svg">
<rect width="36" height="36" rx="8" fill="#D6FD70"/>
<path d="M29.0319 15.9868L22.5621 16.4613C22.5308 16.4469 22.393 16.3793 22.3246 16.215C22.2553 16.0482 22.3068 15.9006 22.3188 15.869L27.228 11.6291C27.6248 11.2865 27.6472 10.6789 27.2767 10.308C26.7501 9.78071 26.2235 9.2533 25.6969 8.72606C25.3261 8.35484 24.7181 8.37707 24.3754 8.77426L20.1345 13.6899H20.1315C20.0259 13.7309 19.9058 13.7309 19.7944 13.684C19.6771 13.634 19.5891 13.5461 19.5452 13.4346L20.0194 6.96873C20.0577 6.44555 19.6437 6 19.1195 6H16.8833C16.3591 6 15.9451 6.4454 15.9835 6.96857L16.458 13.4553V13.4583C16.4419 13.491 16.374 13.6193 16.2175 13.6841C16.0492 13.7537 15.8998 13.6993 15.8686 13.6871H15.8657L11.6275 8.77395C11.2848 8.37675 10.677 8.35437 10.3062 8.72543L8.72408 10.3081C8.3533 10.679 8.37552 11.2867 8.77227 11.6294L13.6962 15.8837C13.7081 15.9163 13.7548 16.0563 13.6904 16.215C13.6231 16.3806 13.4829 16.4477 13.4529 16.4613L6.96826 15.9867C6.44541 15.9483 6 16.3624 6 16.8869V19.1207C6 19.6453 6.44541 20.0594 6.96842 20.0209L9.24897 19.8535C10.7504 19.7433 12.1411 19.0223 13.0965 17.8586L13.1097 17.8426C13.2475 17.6725 13.397 17.5083 13.5524 17.3587C13.561 17.3504 13.6435 17.2681 13.7225 17.1945C14.4102 16.5535 15.2726 16.1463 15.3584 16.1064C15.4033 16.0854 15.4393 16.0695 15.4551 16.0624C16.0681 15.7937 16.6133 15.668 17.009 15.605C17.4409 15.536 18.2803 15.448 19.2812 15.6547C19.5259 15.7053 19.9571 15.8094 20.4657 16.0242C20.5945 16.0785 21.3734 16.4139 22.0957 17.0243C22.0957 17.0243 22.5075 17.3654 22.8756 17.8102C22.9015 17.8413 22.9193 17.8634 22.922 17.867C23.8397 19.0032 25.1634 19.7364 26.6198 19.8434L29.0314 20.0208C29.5544 20.0593 30 19.6452 30 19.1206V16.887C30 16.3624 29.5547 15.9485 29.0319 15.9868Z" fill="#0A0C0E"/>
<path d="M27.2264 24.3822L21.8904 19.7719C20.9374 18.8334 20.1694 18.2293 19.9964 18.1324C19.7971 18.024 19.6006 17.9418 19.6006 17.9418C19.5684 17.9301 19.5361 17.9154 19.5039 17.9036C18.5452 17.5429 17.4546 17.5429 16.4987 17.9094C16.4694 17.9182 16.443 17.9299 16.4137 17.9416C16.4137 17.9416 16.2144 18.0208 16.0062 18.1352C15.8361 18.2291 15.1853 18.7277 14.3849 19.5049H14.3761L14.1094 19.7717L8.7734 24.3821C8.37461 24.7251 8.35412 25.3323 8.72647 25.7018C9.25119 26.2297 9.77905 26.7577 10.3068 27.2826C10.6644 27.6433 11.2508 27.6316 11.5968 27.2681L12.9659 25.6813L15.8685 22.3203L16.2351 21.8951L16.8742 21.2588L16.9356 21.1943C17.2141 20.9303 17.5894 20.7719 18.0028 20.7719C18.4133 20.7719 18.7856 20.9303 19.0641 21.1914L19.1316 21.2618L19.7677 21.8953L20.1283 22.3147L24.3765 27.233C24.7166 27.6319 25.3264 27.6524 25.6958 27.2828L27.2761 25.702C27.6455 25.3325 27.6251 24.7253 27.2264 24.3822Z" fill="#0A0C0E"/>
<path d="M18.0024 25.354C18.8973 25.354 19.6224 24.6261 19.6224 23.7309L19.6052 23.5046C19.4971 22.7152 18.821 22.1104 18.0024 22.1104C17.1839 22.1104 16.5052 22.7177 16.3971 23.5071L16.3799 23.7309C16.3799 24.6261 17.105 25.354 18.0024 25.354Z" fill="#0A0C0E"/>
<path d="M18.0023 26.0977C17.0145 26.0977 16.2011 26.8284 16.0709 27.7781L16.0503 28.0473C16.0503 29.1242 16.9228 30 18.0023 30C19.0818 30 19.9513 29.1242 19.9513 28.0473L19.9307 27.7752C19.8005 26.8255 18.9871 26.0977 18.0023 26.0977Z" fill="#0A0C0E"/>
<path d="M50.9512 27C49.4528 27 48.1861 26.7609 47.1512 26.2828C46.1317 25.8046 45.3516 25.1491 44.811 24.3162C44.2703 23.4679 44 22.5116 44 21.4473H47.2207C47.2207 21.8946 47.3443 22.3342 47.5914 22.7661C47.8386 23.1825 48.2325 23.5219 48.7731 23.7841C49.3292 24.0463 50.0552 24.1774 50.9512 24.1774C51.7544 24.1774 52.4263 24.0617 52.967 23.8303C53.5076 23.599 53.9093 23.2982 54.1719 22.928C54.4345 22.5424 54.5658 22.1105 54.5658 21.6324C54.5658 21.0308 54.3109 20.5527 53.8011 20.1979C53.2914 19.8278 52.5036 19.5964 51.4377 19.5039L49.9548 19.3882C48.3329 19.2494 47.0353 18.7481 46.0622 17.8843C45.1045 17.0051 44.6256 15.8483 44.6256 14.4139C44.6256 13.3342 44.8805 12.4087 45.3902 11.6375C45.9 10.8509 46.6105 10.2494 47.5219 9.83291C48.4487 9.40103 49.53 9.18509 50.7658 9.18509C52.0479 9.18509 53.1524 9.40874 54.0792 9.85604C55.006 10.3033 55.7243 10.9357 56.234 11.7532C56.7438 12.5553 56.9987 13.5039 56.9987 14.599H53.778C53.778 14.1362 53.6621 13.7121 53.4304 13.3265C53.2141 12.9255 52.882 12.6093 52.4341 12.3779C52.0016 12.1311 51.4455 12.0077 50.7658 12.0077C50.117 12.0077 49.5764 12.1157 49.1439 12.3316C48.7113 12.5476 48.387 12.8406 48.1707 13.2108C47.9544 13.581 47.8463 13.982 47.8463 14.4139C47.8463 14.9383 48.0394 15.401 48.4256 15.8021C48.8117 16.1877 49.4219 16.4113 50.256 16.473L51.739 16.6118C52.9438 16.7044 54.0019 16.9589 54.9133 17.3753C55.8247 17.7918 56.5275 18.3548 57.0218 19.0643C57.5316 19.7738 57.7865 20.6298 57.7865 21.6324C57.7865 22.6967 57.5084 23.6375 56.9523 24.455C56.3962 25.2571 55.6007 25.8817 54.5658 26.329C53.5463 26.7764 52.3414 27 50.9512 27Z" fill="white"/>
<path d="M68.1629 26.5604V22.8355H67.63V18.6941C67.63 17.9692 67.4523 17.4293 67.097 17.0746C66.7418 16.7198 66.1934 16.5424 65.4519 16.5424C65.0658 16.5424 64.6023 16.5501 64.0617 16.5656C63.521 16.581 62.9727 16.6041 62.4166 16.635C61.8759 16.6504 61.3894 16.6735 60.9568 16.7044V13.9743C61.3121 13.9434 61.7137 13.9126 62.1617 13.8817C62.6097 13.8509 63.0654 13.8355 63.5288 13.8355C64.0076 13.8201 64.4556 13.8123 64.8727 13.8123C66.1702 13.8123 67.2438 13.982 68.0934 14.3213C68.9584 14.6607 69.6072 15.1928 70.0397 15.9177C70.4877 16.6427 70.7116 17.5913 70.7116 18.7635V26.5604H68.1629ZM64.108 26.8843C63.1967 26.8843 62.3934 26.7224 61.6983 26.3985C61.0186 26.0746 60.4857 25.6118 60.0995 25.0103C59.7288 24.4087 59.5434 23.6838 59.5434 22.8355C59.5434 21.91 59.7674 21.1542 60.2154 20.5681C60.6788 19.982 61.3198 19.5424 62.1385 19.2494C62.9727 18.9563 63.9458 18.8098 65.058 18.8098H67.9775V20.7301H65.0117C64.2702 20.7301 63.6987 20.9152 63.2971 21.2853C62.9109 21.6401 62.7178 22.1028 62.7178 22.6735C62.7178 23.2442 62.9109 23.7069 63.2971 24.0617C63.6987 24.4165 64.2702 24.5938 65.0117 24.5938C65.4597 24.5938 65.869 24.5167 66.2397 24.3625C66.6259 24.1928 66.9426 23.9152 67.1897 23.5296C67.4523 23.1285 67.5991 22.5887 67.63 21.91L68.4178 22.8123C68.3405 23.6915 68.1243 24.4319 67.769 25.0334C67.4291 25.635 66.9503 26.0977 66.3324 26.4216C65.73 26.7301 64.9885 26.8843 64.108 26.8843Z" fill="white"/>
<path d="M74.1615 26.5604V9.67095H77.3822V19.527H76.8261C76.8261 18.2622 76.9883 17.1902 77.3127 16.3111C77.6371 15.4319 78.1159 14.7609 78.7493 14.2982C79.3981 13.8355 80.2167 13.6041 81.2054 13.6041H81.3444C82.7809 13.6041 83.87 14.0977 84.6114 15.0848C85.3529 16.072 85.7236 17.5064 85.7236 19.3882V26.5604H82.5029V19.0874C82.5029 18.2853 82.2712 17.653 81.8078 17.1902C81.3598 16.7275 80.7651 16.4961 80.0237 16.4961C79.2359 16.4961 78.5948 16.7584 78.1005 17.2828C77.6216 17.7918 77.3822 18.4627 77.3822 19.2956V26.5604H74.1615Z" fill="white"/>
<path d="M89.7886 26.5604V13.9974H93.0093V26.5604H89.7886ZM88.0276 16.4036V13.9974H93.0093V16.4036H88.0276ZM90.9703 12.4936C90.337 12.4936 89.8658 12.3316 89.5569 12.0077C89.2634 11.6684 89.1166 11.2519 89.1166 10.7584C89.1166 10.2339 89.2634 9.80977 89.5569 9.48586C89.8658 9.16195 90.337 9 90.9703 9C91.6036 9 92.067 9.16195 92.3605 9.48586C92.654 9.80977 92.8008 10.2339 92.8008 10.7584C92.8008 11.2519 92.654 11.6684 92.3605 12.0077C92.067 12.3316 91.6036 12.4936 90.9703 12.4936Z" fill="white"/>
<path d="M96.976 26.5604V9.67095H101.471L105.711 19.7584H106.128L110.345 9.67095H114.91V26.5604H111.643V12.1465L112.06 12.1928L107.495 23.1131H104.136L99.5479 12.1928L99.9881 12.1465V26.5604H96.976Z" fill="white"/>
<path d="M119.083 26.5604V9.67095H122.373V26.5604H119.083ZM121.91 19.527V16.7506L128.676 16.7275V19.5039L121.91 19.527ZM121.91 12.4473V9.67095H129V12.4473H121.91Z" fill="white"/>
</svg>
