<svg width="40" height="40" viewBox="0 0 40 40" fill="none" xmlns="http://www.w3.org/2000/svg">
<rect width="40" height="40" rx="8" fill="#D6FD70"/>
<path d="M31.0319 17.9868L24.5621 18.4613C24.5308 18.4469 24.393 18.3793 24.3246 18.215C24.2553 18.0482 24.3068 17.9006 24.3188 17.869L29.228 13.6291C29.6248 13.2865 29.6472 12.6789 29.2767 12.308C28.7501 11.7807 28.2235 11.2533 27.6969 10.7261C27.3261 10.3548 26.7181 10.3771 26.3754 10.7743L22.1345 15.6899H22.1315C22.0259 15.7309 21.9058 15.7309 21.7944 15.684C21.6771 15.634 21.5891 15.5461 21.5452 15.4346L22.0194 8.96873C22.0577 8.44555 21.6437 8 21.1195 8H18.8833C18.3591 8 17.9451 8.4454 17.9835 8.96857L18.458 15.4553V15.4583C18.4419 15.491 18.374 15.6193 18.2175 15.6841C18.0492 15.7537 17.8998 15.6993 17.8686 15.6871H17.8657L13.6275 10.7739C13.2848 10.3768 12.677 10.3544 12.3062 10.7254L10.7241 12.3081C10.3533 12.679 10.3755 13.2867 10.7723 13.6294L15.6962 17.8837C15.7081 17.9163 15.7548 18.0563 15.6904 18.215C15.6231 18.3806 15.4829 18.4477 15.4529 18.4613L8.96826 17.9867C8.44541 17.9483 8 18.3624 8 18.8869V21.1207C8 21.6453 8.44541 22.0594 8.96842 22.0209L11.249 21.8535C12.7504 21.7433 14.1411 21.0223 15.0965 19.8586L15.1097 19.8426C15.2475 19.6725 15.397 19.5083 15.5524 19.3587C15.561 19.3504 15.6435 19.2681 15.7225 19.1945C16.4102 18.5535 17.2726 18.1463 17.3584 18.1064C17.4033 18.0854 17.4393 18.0695 17.4551 18.0624C18.0681 17.7937 18.6133 17.668 19.009 17.605C19.4409 17.536 20.2803 17.448 21.2812 17.6547C21.5259 17.7053 21.9571 17.8094 22.4657 18.0242C22.5945 18.0785 23.3734 18.4139 24.0957 19.0243C24.0957 19.0243 24.5075 19.3654 24.8756 19.8102C24.9015 19.8413 24.9193 19.8634 24.922 19.867C25.8397 21.0032 27.1634 21.7364 28.6198 21.8434L31.0314 22.0208C31.5544 22.0593 32 21.6452 32 21.1206V18.887C32 18.3624 31.5547 17.9485 31.0319 17.9868Z" fill="#0A0C0E"/>
<path d="M29.2265 26.382L23.8905 21.7717C22.9376 20.8332 22.1696 20.2291 21.9965 20.1322C21.7972 20.0238 21.6007 19.9416 21.6007 19.9416C21.5685 19.9299 21.5362 19.9152 21.504 19.9034C20.5453 19.5427 19.4547 19.5427 18.4988 19.9092C18.4695 19.918 18.4431 19.9297 18.4138 19.9415C18.4138 19.9415 18.2145 20.0207 18.0063 20.1351C17.8362 20.229 17.1854 20.7276 16.385 21.5047H16.3763L16.1095 21.7716L10.7735 26.3819C10.3747 26.7249 10.3542 27.3321 10.7266 27.7016C11.2513 28.2295 11.7792 28.7575 12.3069 29.2824C12.6645 29.6432 13.2509 29.6314 13.597 29.2679L14.966 27.6811L17.8686 24.3202L18.2352 23.8949L18.8743 23.2586L18.9358 23.1941C19.2142 22.9301 19.5896 22.7718 20.0029 22.7718C20.4134 22.7718 20.7858 22.9301 21.0642 23.1912L21.1317 23.2616L21.7678 23.8951L22.1284 24.3145L26.3766 29.2328C26.7167 29.6317 27.3266 29.6522 27.6959 29.2826L29.2762 27.7018C29.6456 27.3323 29.6253 26.7251 29.2265 26.382Z" fill="#0A0C0E"/>
<path d="M20.0024 27.3546C20.8973 27.3546 21.6224 26.6267 21.6224 25.7316L21.6052 25.5053C21.4971 24.7159 20.821 24.111 20.0024 24.111C19.1839 24.111 18.5052 24.7184 18.3971 25.5078L18.3799 25.7316C18.3799 26.6267 19.105 27.3546 20.0024 27.3546Z" fill="#0A0C0E"/>
<path d="M20.0025 28.0977C19.0147 28.0977 18.2014 28.8284 18.0712 29.7782L18.0505 30.0474C18.0505 31.1243 18.9231 32 20.0025 32C21.082 32 21.9516 31.1243 21.9516 30.0474L21.9309 29.7752C21.8008 28.8256 20.9874 28.0977 20.0025 28.0977Z" fill="#0A0C0E"/>
</svg>
